# This file uses centimeters as units for non-parametric coordinates.

mtllib Hut.mtl
g default
v 7.240917 5.015933 -2.163120
v 6.246640 5.015933 -4.114499
v 4.698016 5.015933 -5.663122
v 2.746637 5.015933 -6.657399
v 0.583517 5.015933 -7.000003
v -1.579603 5.015933 -6.657399
v -3.530981 5.015933 -5.663121
v -5.079604 5.015933 -4.114498
v -6.073880 5.015933 -2.163119
v -6.416485 5.015933 0.000000
v -6.073880 5.015933 2.163119
v -5.079603 5.015933 4.114498
v -3.530981 5.015933 5.663120
v -1.579602 5.015933 6.657397
v 0.583517 5.015933 7.000001
v 2.746636 5.015933 6.657396
v 4.698014 5.015933 5.663119
v 6.246636 5.015933 4.114497
v 7.240913 5.015933 2.163119
v 7.583517 5.015933 0.000000
v 0.583517 10.015932 0.000000
v 5.338803 0.066841 -1.545086
v 4.628605 0.066841 -2.938928
v 3.522445 0.066841 -4.045087
v 2.128603 0.066841 -4.755285
v 0.583517 0.066841 -5.000002
v -0.961569 0.066841 -4.755285
v -2.355410 0.066841 -4.045086
v -3.461569 0.066841 -2.938927
v -4.171767 0.066841 -1.545085
v -4.416484 0.066841 0.000000
v -4.171767 0.066841 1.545085
v -3.461569 0.066841 2.938927
v -2.355410 0.066841 4.045085
v -0.961568 0.066841 4.755283
v 0.583517 0.066841 5.000000
v 2.128602 0.066841 4.755283
v 3.522443 0.066841 4.045085
v 4.628602 0.066841 2.938926
v 5.338800 0.066841 1.545085
v 5.583517 0.066841 0.000000
v 5.338803 5.066841 -1.545086
v 4.628605 5.066841 -2.938928
v 3.522445 5.066841 -4.045087
v 2.128603 5.066841 -4.755285
v 0.583517 5.066841 -5.000002
v -0.961569 5.066841 -4.755285
v -2.355410 5.066841 -4.045086
v -3.461569 5.066841 -2.938927
v -4.171767 5.066841 -1.545085
v -4.416484 5.066841 0.000000
v -4.171767 5.066841 1.545085
v -3.461569 5.066841 2.938927
v -2.355410 5.066841 4.045085
v -0.961568 5.066841 4.755283
v 0.583517 5.066841 5.000000
v 2.128602 5.066841 4.755283
v 3.522443 5.066841 4.045085
v 4.628602 5.066841 2.938926
v 5.338800 5.066841 1.545085
v 5.583517 5.066841 0.000000
v 0.583517 0.066841 0.000000
v 0.583517 5.066841 0.000000
vt 0.180982 0.501339
vt 0.180982 0.456471
vt 0.341933 0.501339
vt 0.341933 0.456471
vt 0.341933 0.551076
vt 0.180982 0.551076
vt 0.341933 0.600812
vt 0.180982 0.600812
vt 0.341933 0.645681
vt 0.180982 0.645681
vt 0.341933 0.681288
vt 0.180982 0.681288
vt 0.001992 0.910096
vt 0.001992 0.874489
vt 0.162943 0.910096
vt 0.162943 0.874489
vt 0.001992 0.829621
vt 0.162943 0.829621
vt 0.001992 0.779884
vt 0.162943 0.779884
vt 0.001992 0.730148
vt 0.162943 0.730148
vt 0.001992 0.685279
vt 0.162943 0.685279
vt 0.441627 0.157517
vt 0.452655 0.227148
vt 0.409621 0.094702
vt 0.441627 0.296779
vt 0.409621 0.359595
vt 0.359770 0.409445
vt 0.296955 0.441451
vt 0.227324 0.452480
vt 0.157692 0.441451
vt 0.094877 0.409445
vt 0.045027 0.359595
vt 0.013021 0.296779
vt 0.001992 0.227148
vt 0.013021 0.157517
vt 0.045027 0.094702
vt 0.094877 0.044851
vt 0.157692 0.012845
vt 0.227324 0.001817
vt 0.296955 0.012845
vt 0.359770 0.044851
vt 0.899825 0.296780
vt 0.867819 0.359595
vt 0.685522 0.227148
vt 0.817969 0.409445
vt 0.910854 0.227148
vt 0.755154 0.441451
vt 0.899825 0.157517
vt 0.685522 0.452480
vt 0.867819 0.094702
vt 0.615891 0.441451
vt 0.817969 0.044851
vt 0.553076 0.409445
vt 0.755154 0.012845
vt 0.503225 0.359595
vt 0.685522 0.001817
vt 0.471219 0.296779
vt 0.615891 0.012845
vt 0.460191 0.227148
vt 0.553076 0.044851
vt 0.471219 0.157517
vt 0.503225 0.094702
vt 0.967269 0.522818
vt 0.990131 0.567686
vt 0.837057 0.617422
vt 0.998008 0.617422
vt 0.931662 0.487210
vt 0.990131 0.667159
vt 0.886794 0.464349
vt 0.967269 0.712027
vt 0.837057 0.456471
vt 0.931662 0.747634
vt 0.787320 0.464349
vt 0.886794 0.770496
vt 0.742452 0.487210
vt 0.837057 0.778373
vt 0.706845 0.522818
vt 0.787320 0.770496
vt 0.683983 0.567686
vt 0.742452 0.747634
vt 0.676106 0.617422
vt 0.706845 0.712027
vt 0.683983 0.667159
vt 0.662093 0.667159
vt 0.639232 0.712027
vt 0.509019 0.617422
vt 0.603624 0.747634
vt 0.669971 0.617422
vt 0.558756 0.770496
vt 0.662093 0.567686
vt 0.509019 0.778373
vt 0.639232 0.522818
vt 0.459283 0.770496
vt 0.603624 0.487210
vt 0.414415 0.747634
vt 0.558756 0.464349
vt 0.378807 0.712027
vt 0.509019 0.456471
vt 0.355946 0.667159
vt 0.459283 0.464349
vt 0.348068 0.617422
vt 0.414415 0.487210
vt 0.355946 0.567686
vt 0.378807 0.522818
vt 0.174847 0.456471
vt 0.174847 0.492079
vt 0.013896 0.456471
vt 0.013896 0.492079
vt 0.174847 0.536947
vt 0.013896 0.536947
vt 0.174847 0.586683
vt 0.013896 0.586683
vt 0.174847 0.636420
vt 0.013896 0.636420
vt 0.174847 0.681288
vt 0.013896 0.681288
vt 0.169797 0.910096
vt 0.169797 0.874489
vt 0.330748 0.910096
vt 0.330748 0.874489
vt 0.169797 0.829621
vt 0.330748 0.829621
vt 0.169797 0.779884
vt 0.330748 0.779884
vt 0.169797 0.730148
vt 0.330748 0.730148
vt 0.169797 0.685280
vt 0.330748 0.685280
vn 0.000000 -1.000000 0.000000
vn 0.000000 -1.000000 0.000000
vn 0.000000 -1.000000 0.000000
vn 0.000000 -1.000000 0.000000
vn 0.000000 -1.000000 0.000000
vn 0.000000 -1.000000 0.000000
vn 0.000000 -1.000000 0.000000
vn 0.000000 -1.000000 0.000000
vn 0.000000 -1.000000 0.000000
vn 0.000000 -1.000000 0.000000
vn 0.000000 -1.000000 -0.000000
vn 0.000000 -1.000000 -0.000000
vn 0.000000 -1.000000 0.000000
vn 0.000000 -1.000000 -0.000000
vn 0.000000 -1.000000 0.000000
vn 0.000000 -1.000000 0.000000
vn 0.000000 -1.000000 0.000000
vn 0.000000 -1.000000 0.000000
vn 0.000000 -1.000000 0.000000
vn 0.000000 -1.000000 0.000000
vn 0.552790 0.813734 -0.179612
vn 0.470231 0.813734 -0.341643
vn -0.000000 1.000000 -0.000000
vn 0.341643 0.813734 -0.470231
vn 0.179612 0.813734 -0.552790
vn 0.000000 0.813734 -0.581238
vn -0.179612 0.813734 -0.552790
vn -0.341643 0.813734 -0.470231
vn -0.470232 0.813734 -0.341643
vn -0.552790 0.813734 -0.179612
vn -0.581238 0.813734 0.000000
vn -0.552790 0.813734 0.179612
vn -0.470232 0.813734 0.341643
vn -0.341643 0.813734 0.470231
vn -0.179612 0.813734 0.552790
vn -0.000000 0.813734 0.581238
vn 0.179612 0.813734 0.552790
vn 0.341643 0.813734 0.470232
vn 0.470232 0.813734 0.341643
vn 0.552790 0.813734 0.179613
vn 0.581238 0.813734 0.000001
vn 0.951057 0.000000 -0.309016
vn 0.809017 0.000000 -0.587785
vn 0.951057 0.000000 -0.309016
vn 0.809017 0.000000 -0.587785
vn 0.587785 0.000000 -0.809017
vn 0.587785 0.000000 -0.809017
vn 0.309017 0.000000 -0.951057
vn 0.309017 0.000000 -0.951057
vn -0.000000 0.000000 -1.000000
vn -0.000000 0.000000 -1.000000
vn -0.309017 0.000000 -0.951056
vn -0.309017 0.000000 -0.951056
vn -0.587786 0.000000 -0.809017
vn -0.587785 0.000000 -0.809017
vn -0.809017 0.000000 -0.587785
vn -0.809017 0.000000 -0.587785
vn -0.951057 0.000000 -0.309017
vn -0.951057 0.000000 -0.309017
vn -1.000000 0.000000 -0.000000
vn -1.000000 0.000000 0.000000
vn -0.951057 0.000000 0.309017
vn -0.951057 0.000000 0.309017
vn -0.809017 0.000000 0.587785
vn -0.809017 0.000000 0.587785
vn -0.587785 0.000000 0.809017
vn -0.587785 0.000000 0.809017
vn -0.309017 0.000000 0.951057
vn -0.309017 0.000000 0.951057
vn 0.000000 0.000000 1.000000
vn -0.000000 0.000000 1.000000
vn 0.309017 0.000000 0.951057
vn 0.309017 0.000000 0.951057
vn 0.587785 0.000000 0.809017
vn 0.587785 0.000000 0.809017
vn 0.809017 0.000000 0.587785
vn 0.809017 0.000000 0.587785
vn 0.951057 0.000000 0.309017
vn 0.951057 0.000000 0.309017
vn 1.000000 0.000000 0.000001
vn 1.000000 0.000000 0.000001
vn 0.000000 -1.000000 0.000000
vn 0.000000 -1.000000 0.000000
vn 0.000000 -1.000000 -0.000000
vn 0.000000 -1.000000 0.000000
vn 0.000000 -1.000000 0.000000
vn 0.000000 -1.000000 0.000000
vn 0.000000 -1.000000 0.000000
vn 0.000000 -1.000000 0.000000
vn 0.000000 -1.000000 0.000000
vn 0.000000 -1.000000 0.000000
vn 0.000000 -1.000000 0.000000
vn 0.000000 -1.000000 0.000000
vn 0.000000 -1.000000 0.000000
vn 0.000000 -1.000000 0.000000
vn 0.000000 -1.000000 0.000000
vn 0.000000 -1.000000 0.000000
vn 0.000000 -1.000000 -0.000000
vn 0.000000 -1.000000 -0.000000
vn 0.000000 -1.000000 0.000000
vn 0.000000 -1.000000 0.000000
vn 0.000000 -1.000000 0.000000
vn 0.000000 1.000000 0.000000
vn 0.000000 1.000000 0.000000
vn 0.000000 1.000000 0.000000
vn 0.000000 1.000000 0.000000
vn 0.000000 1.000000 0.000000
vn 0.000000 1.000000 0.000000
vn 0.000000 1.000000 0.000000
vn 0.000000 1.000000 0.000000
vn 0.000000 1.000000 0.000000
vn 0.000000 1.000000 -0.000000
vn 0.000000 1.000000 0.000000
vn 0.000000 1.000000 0.000000
vn 0.000000 1.000000 0.000000
vn 0.000000 1.000000 -0.000000
vn 0.000000 1.000000 -0.000000
vn 0.000000 1.000000 0.000000
vn 0.000000 1.000000 0.000000
vn 0.000000 1.000000 -0.000000
vn 0.000000 1.000000 0.000000
vn 0.000000 1.000000 0.000000
vn 0.000000 1.000000 0.000000
s 1
g pCone2
usemtl initialShadingGroup
f 1/25/1 20/26/2 2/27/3
f 20/26/2 19/28/4 2/27/3
f 19/28/4 18/29/5 2/27/3
f 18/29/5 17/30/6 2/27/3
f 17/30/6 16/31/7 2/27/3
f 16/31/7 15/32/8 2/27/3
f 15/32/8 14/33/9 2/27/3
f 14/33/9 13/34/10 2/27/3
f 13/34/10 12/35/11 2/27/3
f 12/35/11 11/36/12 2/27/3
f 11/36/12 10/37/13 2/27/3
f 10/37/13 9/38/14 2/27/3
f 9/38/14 8/39/15 2/27/3
f 8/39/15 7/40/16 2/27/3
f 7/40/16 6/41/17 2/27/3
f 6/41/17 5/42/18 2/27/3
f 5/42/18 4/43/19 2/27/3
f 4/43/19 3/44/20 2/27/3
s 2
f 1/45/21 2/46/22 21/47/23
f 2/46/22 3/48/24 21/47/23
f 3/48/24 4/50/25 21/47/23
f 4/50/25 5/52/26 21/47/23
f 5/52/26 6/54/27 21/47/23
f 6/54/27 7/56/28 21/47/23
f 7/56/28 8/58/29 21/47/23
f 8/58/29 9/60/30 21/47/23
f 9/60/30 10/62/31 21/47/23
f 10/62/31 11/64/32 21/47/23
f 11/64/32 12/65/33 21/47/23
f 12/65/33 13/63/34 21/47/23
f 13/63/34 14/61/35 21/47/23
f 14/61/35 15/59/36 21/47/23
f 15/59/36 16/57/37 21/47/23
f 16/57/37 17/55/38 21/47/23
f 17/55/38 18/53/39 21/47/23
f 18/53/39 19/51/40 21/47/23
f 19/51/40 20/49/41 21/47/23
f 20/49/41 1/45/21 21/47/23
s 3
f 22/1/42 23/2/43 42/3/44
f 42/3/44 23/2/43 43/4/45
f 23/108/43 24/109/46 43/110/45
f 43/110/45 24/109/46 44/111/47
f 24/109/46 25/112/48 44/111/47
f 44/111/47 25/112/48 45/113/49
f 25/112/48 26/114/50 45/113/49
f 45/113/49 26/114/50 46/115/51
f 26/114/50 27/116/52 46/115/51
f 46/115/51 27/116/52 47/117/53
f 27/116/52 28/118/54 47/117/53
f 47/117/53 28/118/54 48/119/55
f 28/13/54 29/14/56 48/15/55
f 48/15/55 29/14/56 49/16/57
f 29/14/56 30/17/58 49/16/57
f 49/16/57 30/17/58 50/18/59
f 30/17/58 31/19/60 50/18/59
f 50/18/59 31/19/60 51/20/61
f 31/19/60 32/21/62 51/20/61
f 51/20/61 32/21/62 52/22/63
f 32/21/62 33/23/64 52/22/63
f 52/22/63 33/23/64 53/24/65
f 33/120/64 34/121/66 53/122/65
f 53/122/65 34/121/66 54/123/67
f 34/121/66 35/124/68 54/123/67
f 54/123/67 35/124/68 55/125/69
f 35/124/68 36/126/70 55/125/69
f 55/125/69 36/126/70 56/127/71
f 36/126/70 37/128/72 56/127/71
f 56/127/71 37/128/72 57/129/73
f 37/128/72 38/130/74 57/129/73
f 57/129/73 38/130/74 58/131/75
f 38/12/74 39/10/76 58/11/75
f 58/11/75 39/10/76 59/9/77
f 39/10/76 40/8/78 59/9/77
f 59/9/77 40/8/78 60/7/79
f 40/8/78 41/6/80 60/7/79
f 60/7/79 41/6/80 61/5/81
f 41/6/80 22/1/42 61/5/81
f 61/5/81 22/1/42 42/3/44
s 4
f 23/66/82 22/67/83 62/68/84
f 24/70/85 23/66/82 62/68/84
f 25/72/86 24/70/85 62/68/84
f 26/74/87 25/72/86 62/68/84
f 27/76/88 26/74/87 62/68/84
f 28/78/89 27/76/88 62/68/84
f 29/80/90 28/78/89 62/68/84
f 30/82/91 29/80/90 62/68/84
f 31/84/92 30/82/91 62/68/84
f 32/86/93 31/84/92 62/68/84
f 33/85/94 32/86/93 62/68/84
f 34/83/95 33/85/94 62/68/84
f 35/81/96 34/83/95 62/68/84
f 36/79/97 35/81/96 62/68/84
f 37/77/98 36/79/97 62/68/84
f 38/75/99 37/77/98 62/68/84
f 39/73/100 38/75/99 62/68/84
f 40/71/101 39/73/100 62/68/84
f 41/69/102 40/71/101 62/68/84
f 22/67/83 41/69/102 62/68/84
s 5
f 42/87/103 43/88/104 63/89/105
f 43/88/104 44/90/106 63/89/105
f 44/90/106 45/92/107 63/89/105
f 45/92/107 46/94/108 63/89/105
f 46/94/108 47/96/109 63/89/105
f 47/96/109 48/98/110 63/89/105
f 48/98/110 49/100/111 63/89/105
f 49/100/111 50/102/112 63/89/105
f 50/102/112 51/104/113 63/89/105
f 51/104/113 52/106/114 63/89/105
f 52/106/114 53/107/115 63/89/105
f 53/107/115 54/105/116 63/89/105
f 54/105/116 55/103/117 63/89/105
f 55/103/117 56/101/118 63/89/105
f 56/101/118 57/99/119 63/89/105
f 57/99/119 58/97/120 63/89/105
f 58/97/120 59/95/121 63/89/105
f 59/95/121 60/93/122 63/89/105
f 60/93/122 61/91/123 63/89/105
f 61/91/123 42/87/103 63/89/105
