# This file uses centimeters as units for non-parametric coordinates.

mtllib BossLegOBJ.mtl
g default
v 0.137213 -1.453278 0.148723
v 0.108278 -1.453278 0.100623
v 0.063210 -1.453278 0.062451
v 0.006421 -1.453278 0.037943
v -0.056529 -1.453278 0.029498
v -0.119480 -1.453278 0.037943
v -0.176268 -1.453278 0.062451
v -0.221336 -1.453278 0.100623
v -0.250271 -1.453278 0.148723
v -0.260242 -1.453278 0.202043
v -0.250271 -1.453278 0.255362
v -0.221336 -1.453278 0.303462
v -0.176268 -1.453278 0.341634
v -0.119480 -1.453278 0.366142
v -0.056529 -1.453278 0.374587
v 0.006421 -1.453278 0.366142
v 0.063210 -1.453278 0.341634
v 0.108278 -1.453278 0.303462
v 0.137213 -1.453278 0.255362
v 0.147183 -1.453278 0.202043
v 0.146430 -1.285383 0.154464
v 0.124561 -1.285383 0.111544
v 0.090499 -1.285383 0.077482
v 0.047578 -1.285383 0.055612
v 0.000000 -1.285383 0.048077
v -0.047578 -1.285383 0.055612
v -0.090499 -1.285383 0.077482
v -0.124561 -1.285383 0.111544
v -0.146430 -1.285383 0.154465
v -0.153966 -1.285383 0.202043
v -0.146430 -1.285383 0.249621
v -0.124561 -1.285383 0.292541
v -0.090499 -1.285383 0.326604
v -0.047578 -1.285383 0.348473
v 0.000000 -1.285383 0.356008
v 0.047578 -1.285383 0.348473
v 0.090499 -1.285383 0.326604
v 0.124561 -1.285383 0.292541
v 0.146430 -1.285383 0.249621
v 0.153966 -1.285383 0.202043
v 0.172448 -0.508392 0.146011
v 0.146693 -0.508392 0.095464
v 0.106579 -0.508392 0.055349
v 0.056032 -0.508392 0.029594
v 0.000000 -0.508392 0.020720
v -0.056032 -0.508392 0.029594
v -0.106579 -0.508392 0.055349
v -0.146693 -0.508392 0.095464
v -0.172448 -0.508392 0.146011
v -0.181323 -0.508392 0.202043
v -0.172448 -0.508392 0.258074
v -0.146693 -0.508392 0.308621
v -0.106579 -0.508392 0.348736
v -0.056032 -0.508392 0.374491
v 0.000000 -0.508392 0.383365
v 0.056032 -0.508392 0.374491
v 0.106579 -0.508392 0.348736
v 0.146693 -0.508392 0.308621
v 0.172448 -0.508392 0.258074
v 0.181323 -0.508392 0.202043
v -0.056529 -1.453278 0.202043
v 0.000000 -0.508392 0.202043
vt 0.248000 0.948084
vt 0.248010 0.940453
vt 0.362770 0.940602
vt 0.362760 0.948233
vt 0.248020 0.932821
vt 0.362780 0.932970
vt 0.248030 0.925189
vt 0.362790 0.925339
vt 0.248039 0.917558
vt 0.362800 0.917707
vt 0.248049 0.909926
vt 0.362810 0.910076
vt 0.248059 0.902295
vt 0.362820 0.902444
vt 0.248069 0.894663
vt 0.362830 0.894812
vt 0.248079 0.887032
vt 0.362839 0.887181
vt 0.248089 0.879400
vt 0.362849 0.879549
vt 0.248099 0.871769
vt 0.362859 0.871918
vt 0.248109 0.864137
vt 0.362869 0.864286
vt 0.248119 0.856506
vt 0.362879 0.856655
vt 0.248129 0.848874
vt 0.362889 0.849023
vt 0.248139 0.841242
vt 0.362899 0.841392
vt 0.248149 0.833611
vt 0.362909 0.833760
vt 0.248159 0.825979
vt 0.362919 0.826129
vt 0.248168 0.818348
vt 0.362929 0.818497
vt 0.248178 0.810716
vt 0.362939 0.810865
vt 0.248188 0.803085
vt 0.362949 0.803234
vt 0.248198 0.795453
vt 0.362958 0.795602
vt 0.477530 0.940751
vt 0.477520 0.948382
vt 0.477540 0.933119
vt 0.477550 0.925488
vt 0.477560 0.917856
vt 0.477570 0.910225
vt 0.477580 0.902593
vt 0.477590 0.894962
vt 0.477600 0.887330
vt 0.477610 0.879699
vt 0.477620 0.872067
vt 0.477630 0.864435
vt 0.477639 0.856804
vt 0.477649 0.849172
vt 0.477659 0.841541
vt 0.477669 0.833909
vt 0.477679 0.826278
vt 0.477689 0.818646
vt 0.477699 0.811015
vt 0.477709 0.803383
vt 0.477719 0.795752
vt 0.096733 0.794396
vt 0.123344 0.780881
vt 0.148889 0.871640
vt 0.075602 0.815473
vt 0.062017 0.842048
vt 0.057310 0.871521
vt 0.061941 0.901005
vt 0.075456 0.927616
vt 0.096533 0.948748
vt 0.123108 0.962332
vt 0.152580 0.967039
vt 0.182065 0.962408
vt 0.208676 0.948893
vt 0.229807 0.927816
vt 0.243392 0.901241
vt 0.248099 0.871769
vt 0.243468 0.842284
vt 0.229953 0.815673
vt 0.208876 0.794542
vt 0.182301 0.780957
vt 0.152828 0.776250
vt 0.182741 0.780958
vt 0.209317 0.794542
vt 0.149329 0.871640
vt 0.230393 0.815674
vt 0.243909 0.842285
vt 0.248539 0.871769
vt 0.243832 0.901242
vt 0.230248 0.927817
vt 0.209116 0.948894
vt 0.182505 0.962409
vt 0.153021 0.967040
vt 0.123548 0.962332
vt 0.096973 0.948748
vt 0.075896 0.927616
vt 0.062381 0.901006
vt 0.057750 0.871521
vt 0.062458 0.842049
vt 0.076042 0.815473
vt 0.097174 0.794396
vt 0.123784 0.780881
vt 0.153269 0.776251
vn 0.766227 -0.035715 -0.641577
vn 0.806520 -0.035600 -0.590134
vn 0.937092 -0.043574 -0.346353
vn 0.949566 -0.036660 -0.311416
vn 0.520811 -0.009895 -0.853615
vn 0.586796 -0.032099 -0.809099
vn 0.766227 -0.035715 -0.641577
vn 0.806520 -0.035600 -0.590134
vn 0.236274 0.045005 -0.970644
vn 0.313069 -0.024277 -0.949420
vn 0.520811 -0.009895 -0.853615
vn 0.586796 -0.032099 -0.809099
vn -0.058206 0.132953 -0.989412
vn 0.010640 -0.010371 -0.999890
vn 0.236274 0.045005 -0.970644
vn 0.313069 -0.024277 -0.949420
vn -0.334312 0.245038 -0.910050
vn -0.293921 0.010325 -0.955774
vn -0.058206 0.132953 -0.989412
vn 0.010640 -0.010371 -0.999890
vn -0.562931 0.359799 -0.744079
vn -0.572892 0.035844 -0.818846
vn -0.334312 0.245038 -0.910050
vn -0.293921 0.010325 -0.955774
vn -0.724704 0.453708 -0.518607
vn -0.798302 0.061150 -0.599144
vn -0.562931 0.359799 -0.744079
vn -0.572892 0.035844 -0.818846
vn -0.817070 0.512562 -0.263963
vn -0.945197 0.079867 -0.316582
vn -0.724704 0.453708 -0.518607
vn -0.798302 0.061150 -0.599144
vn -0.846587 0.532251 0.000000
vn -0.996228 0.086775 -0.000000
vn -0.817070 0.512562 -0.263963
vn -0.945197 0.079867 -0.316582
vn -0.846587 0.532251 0.000000
vn -0.817070 0.512562 0.263963
vn -0.996228 0.086775 -0.000000
vn -0.945197 0.079867 0.316582
vn -0.817070 0.512562 0.263963
vn -0.724704 0.453708 0.518607
vn -0.945197 0.079867 0.316582
vn -0.798302 0.061150 0.599145
vn -0.724704 0.453708 0.518607
vn -0.562931 0.359799 0.744079
vn -0.798302 0.061150 0.599145
vn -0.572892 0.035845 0.818847
vn -0.562931 0.359799 0.744079
vn -0.334311 0.245038 0.910051
vn -0.572892 0.035845 0.818847
vn -0.293921 0.010325 0.955774
vn -0.334311 0.245038 0.910051
vn -0.058206 0.132953 0.989412
vn -0.293921 0.010325 0.955774
vn 0.010640 -0.010371 0.999890
vn -0.058206 0.132953 0.989412
vn 0.236274 0.045005 0.970644
vn 0.010640 -0.010371 0.999890
vn 0.313069 -0.024277 0.949420
vn 0.236274 0.045005 0.970644
vn 0.520811 -0.009895 0.853615
vn 0.313069 -0.024277 0.949420
vn 0.586796 -0.032099 0.809098
vn 0.520811 -0.009895 0.853615
vn 0.766227 -0.035715 0.641577
vn 0.586796 -0.032099 0.809098
vn 0.806520 -0.035600 0.590134
vn 0.766227 -0.035715 0.641577
vn 0.937091 -0.043574 0.346354
vn 0.806520 -0.035600 0.590134
vn 0.949566 -0.036660 0.311417
vn 0.937091 -0.043574 0.346354
vn 0.999003 -0.044638 0.000001
vn 0.949566 -0.036660 0.311417
vn 0.999322 -0.036808 0.000001
vn 0.937092 -0.043574 -0.346353
vn 0.949566 -0.036660 -0.311416
vn 0.999003 -0.044638 0.000001
vn 0.999322 -0.036808 0.000001
vn 0.949566 -0.036660 -0.311416
vn 0.806520 -0.035600 -0.590134
vn 0.950468 -0.035187 -0.308825
vn 0.808516 -0.035187 -0.587421
vn 0.806520 -0.035600 -0.590134
vn 0.586796 -0.032099 -0.809099
vn 0.808516 -0.035187 -0.587421
vn 0.587421 -0.035187 -0.808516
vn 0.586796 -0.032099 -0.809099
vn 0.313069 -0.024277 -0.949420
vn 0.587421 -0.035187 -0.808516
vn 0.308825 -0.035187 -0.950468
vn 0.313069 -0.024277 -0.949420
vn 0.010640 -0.010371 -0.999890
vn 0.308825 -0.035187 -0.950468
vn 0.000000 -0.035187 -0.999381
vn 0.010640 -0.010371 -0.999890
vn -0.293921 0.010325 -0.955774
vn 0.000000 -0.035187 -0.999381
vn -0.308826 -0.035187 -0.950468
vn -0.293921 0.010325 -0.955774
vn -0.572892 0.035844 -0.818846
vn -0.308826 -0.035187 -0.950468
vn -0.587422 -0.035187 -0.808516
vn -0.572892 0.035844 -0.818846
vn -0.798302 0.061150 -0.599144
vn -0.587422 -0.035187 -0.808516
vn -0.808516 -0.035187 -0.587421
vn -0.798302 0.061150 -0.599144
vn -0.945197 0.079867 -0.316582
vn -0.808516 -0.035187 -0.587421
vn -0.950468 -0.035187 -0.308826
vn -0.945197 0.079867 -0.316582
vn -0.996228 0.086775 -0.000000
vn -0.950468 -0.035187 -0.308826
vn -0.999381 -0.035187 0.000000
vn -0.996228 0.086775 -0.000000
vn -0.945197 0.079867 0.316582
vn -0.999381 -0.035187 0.000000
vn -0.950468 -0.035187 0.308826
vn -0.945197 0.079867 0.316582
vn -0.798302 0.061150 0.599145
vn -0.950468 -0.035187 0.308826
vn -0.808516 -0.035187 0.587421
vn -0.798302 0.061150 0.599145
vn -0.572892 0.035845 0.818847
vn -0.808516 -0.035187 0.587421
vn -0.587421 -0.035187 0.808516
vn -0.572892 0.035845 0.818847
vn -0.293921 0.010325 0.955774
vn -0.587421 -0.035187 0.808516
vn -0.308826 -0.035187 0.950468
vn -0.293921 0.010325 0.955774
vn 0.010640 -0.010371 0.999890
vn -0.308826 -0.035187 0.950468
vn 0.000000 -0.035187 0.999381
vn 0.010640 -0.010371 0.999890
vn 0.313069 -0.024277 0.949420
vn 0.000000 -0.035187 0.999381
vn 0.308826 -0.035187 0.950468
vn 0.313069 -0.024277 0.949420
vn 0.586796 -0.032099 0.809098
vn 0.308826 -0.035187 0.950468
vn 0.587421 -0.035187 0.808516
vn 0.586796 -0.032099 0.809098
vn 0.806520 -0.035600 0.590134
vn 0.587421 -0.035187 0.808516
vn 0.808516 -0.035187 0.587421
vn 0.806520 -0.035600 0.590134
vn 0.949566 -0.036660 0.311417
vn 0.808516 -0.035187 0.587421
vn 0.950468 -0.035187 0.308826
vn 0.949566 -0.036660 0.311417
vn 0.999322 -0.036808 0.000001
vn 0.950468 -0.035187 0.308826
vn 0.999381 -0.035187 0.000001
vn 0.999322 -0.036808 0.000001
vn 0.949566 -0.036660 -0.311416
vn 0.999381 -0.035187 0.000001
vn 0.950468 -0.035187 -0.308825
vn 0.000000 -1.000000 0.000000
vn 0.000000 -1.000000 0.000000
vn 0.000000 -1.000000 0.000000
vn 0.000000 -1.000000 0.000000
vn 0.000000 -1.000000 0.000000
vn 0.000000 -1.000000 0.000000
vn 0.000000 -1.000000 0.000000
vn 0.000000 -1.000000 0.000000
vn 0.000000 -1.000000 0.000000
vn 0.000000 -1.000000 0.000000
vn 0.000000 -1.000000 0.000000
vn 0.000000 -1.000000 0.000000
vn 0.000000 -1.000000 0.000000
vn 0.000000 -1.000000 0.000000
vn 0.000000 -1.000000 0.000000
vn 0.000000 -1.000000 0.000000
vn 0.000000 -1.000000 0.000000
vn 0.000000 -1.000000 0.000000
vn 0.000000 -1.000000 0.000000
vn 0.000000 -1.000000 0.000000
vn 0.000000 -1.000000 0.000000
vn 0.000000 -1.000000 0.000000
vn 0.000000 -1.000000 0.000000
vn 0.000000 -1.000000 0.000000
vn 0.000000 -1.000000 0.000000
vn 0.000000 -1.000000 0.000000
vn 0.000000 -1.000000 0.000000
vn 0.000000 -1.000000 0.000000
vn 0.000000 -1.000000 0.000000
vn 0.000000 -1.000000 0.000000
vn 0.000000 -1.000000 0.000000
vn 0.000000 -1.000000 0.000000
vn 0.000000 -1.000000 0.000000
vn 0.000000 -1.000000 0.000000
vn 0.000000 -1.000000 0.000000
vn 0.000000 -1.000000 0.000000
vn 0.000000 -1.000000 0.000000
vn 0.000000 -1.000000 0.000000
vn 0.000000 -1.000000 0.000000
vn 0.000000 -1.000000 0.000000
vn 0.000000 -1.000000 0.000000
vn 0.000000 -1.000000 0.000000
vn 0.000000 -1.000000 0.000000
vn 0.000000 -1.000000 0.000000
vn 0.000000 -1.000000 0.000000
vn 0.000000 -1.000000 0.000000
vn 0.000000 -1.000000 0.000000
vn 0.000000 -1.000000 0.000000
vn 0.000000 -1.000000 0.000000
vn 0.000000 -1.000000 0.000000
vn 0.000000 -1.000000 0.000000
vn 0.000000 -1.000000 0.000000
vn 0.000000 -1.000000 0.000000
vn 0.000000 -1.000000 0.000000
vn 0.000000 -1.000000 0.000000
vn 0.000000 -1.000000 0.000000
vn 0.000000 -1.000000 0.000000
vn 0.000000 -1.000000 0.000000
vn 0.000000 -1.000000 0.000000
vn 0.000000 -1.000000 0.000000
vn 0.000000 1.000000 0.000000
vn 0.000000 1.000000 0.000000
vn 0.000000 1.000000 0.000000
vn 0.000000 1.000000 0.000000
vn 0.000000 1.000000 0.000001
vn 0.000000 1.000000 0.000000
vn 0.000000 1.000000 0.000001
vn 0.000000 1.000000 0.000001
vn 0.000000 1.000000 0.000000
vn 0.000000 1.000000 0.000001
vn 0.000000 1.000000 0.000000
vn 0.000000 1.000000 0.000000
vn 0.000000 1.000000 0.000000
vn 0.000000 1.000000 0.000000
vn 0.000000 1.000000 0.000000
vn 0.000000 1.000000 0.000000
vn 0.000000 1.000000 0.000000
vn 0.000000 1.000000 0.000000
vn 0.000000 1.000000 0.000000
vn 0.000000 1.000000 0.000000
vn 0.000000 1.000000 0.000000
vn 0.000000 1.000000 0.000000
vn 0.000000 1.000000 0.000000
vn 0.000000 1.000000 0.000000
vn 0.000000 1.000000 0.000000
vn 0.000000 1.000000 0.000000
vn 0.000000 1.000000 0.000000
vn 0.000000 1.000000 0.000000
vn 0.000000 1.000000 0.000000
vn 0.000000 1.000000 0.000000
vn 0.000000 1.000000 0.000000
vn 0.000000 1.000000 0.000000
vn 0.000000 1.000000 0.000000
vn 0.000000 1.000000 0.000000
vn 0.000000 1.000000 0.000000
vn 0.000000 1.000000 0.000000
vn 0.000000 1.000000 0.000000
vn 0.000000 1.000000 0.000000
vn 0.000000 1.000000 0.000000
vn 0.000000 1.000000 0.000000
vn 0.000000 1.000000 0.000000
vn 0.000000 1.000000 0.000000
vn 0.000000 1.000000 0.000000
vn 0.000000 1.000000 0.000000
vn 0.000000 1.000000 0.000000
vn 0.000000 1.000000 0.000000
vn 0.000000 1.000000 0.000000
vn 0.000000 1.000000 0.000000
vn 0.000000 1.000000 0.000000
vn 0.000000 1.000000 0.000000
vn 0.000000 1.000000 0.000000
vn 0.000000 1.000000 0.000000
vn 0.000000 1.000000 0.000000
vn 0.000000 1.000000 0.000000
vn 0.000000 1.000000 0.000000
vn 0.000000 1.000000 0.000000
vn 0.000000 1.000000 0.000000
vn 0.000000 1.000000 0.000000
vn 0.000000 1.000000 0.000000
vn 0.000000 1.000000 0.000000
s 1
g BossLegOBJ_pCylinder9
usemtl initialShadingGroup
f 2/2/1 22/3/2 1/1/3
f 1/1/3 22/3/2 21/4/4
s 2
f 3/5/5 23/6/6 2/2/7
f 2/2/7 23/6/6 22/3/8
s 3
f 4/7/9 24/8/10 3/5/11
f 3/5/11 24/8/10 23/6/12
s 4
f 5/9/13 25/10/14 4/7/15
f 4/7/15 25/10/14 24/8/16
s 5
f 6/11/17 26/12/18 5/9/19
f 5/9/19 26/12/18 25/10/20
s 6
f 7/13/21 27/14/22 6/11/23
f 6/11/23 27/14/22 26/12/24
s 7
f 8/15/25 28/16/26 7/13/27
f 7/13/27 28/16/26 27/14/28
s 8
f 9/17/29 29/18/30 8/15/31
f 8/15/31 29/18/30 28/16/32
s 9
f 10/19/33 30/20/34 9/17/35
f 9/17/35 30/20/34 29/18/36
s 10
f 10/19/37 11/21/38 30/20/39
f 30/20/39 11/21/38 31/22/40
s 11
f 11/21/41 12/23/42 31/22/43
f 31/22/43 12/23/42 32/24/44
s 12
f 12/23/45 13/25/46 32/24/47
f 32/24/47 13/25/46 33/26/48
s 13
f 13/25/49 14/27/50 33/26/51
f 33/26/51 14/27/50 34/28/52
s 14
f 14/27/53 15/29/54 34/28/55
f 34/28/55 15/29/54 35/30/56
s 15
f 15/29/57 16/31/58 35/30/59
f 35/30/59 16/31/58 36/32/60
s 16
f 16/31/61 17/33/62 36/32/63
f 36/32/63 17/33/62 37/34/64
s 17
f 17/33/65 18/35/66 37/34/67
f 37/34/67 18/35/66 38/36/68
s 18
f 18/35/69 19/37/70 38/36/71
f 38/36/71 19/37/70 39/38/72
s 19
f 19/37/73 20/39/74 39/38/75
f 39/38/75 20/39/74 40/40/76
s 20
f 1/41/77 21/42/78 20/39/79
f 20/39/79 21/42/78 40/40/80
s 21
f 21/4/81 22/3/82 41/44/83
f 41/44/83 22/3/82 42/43/84
s 22
f 22/3/85 23/6/86 42/43/87
f 42/43/87 23/6/86 43/45/88
s 23
f 23/6/89 24/8/90 43/45/91
f 43/45/91 24/8/90 44/46/92
s 24
f 24/8/93 25/10/94 44/46/95
f 44/46/95 25/10/94 45/47/96
s 25
f 25/10/97 26/12/98 45/47/99
f 45/47/99 26/12/98 46/48/100
s 26
f 26/12/101 27/14/102 46/48/103
f 46/48/103 27/14/102 47/49/104
s 27
f 27/14/105 28/16/106 47/49/107
f 47/49/107 28/16/106 48/50/108
s 28
f 28/16/109 29/18/110 48/50/111
f 48/50/111 29/18/110 49/51/112
s 29
f 29/18/113 30/20/114 49/51/115
f 49/51/115 30/20/114 50/52/116
s 30
f 30/20/117 31/22/118 50/52/119
f 50/52/119 31/22/118 51/53/120
s 31
f 31/22/121 32/24/122 51/53/123
f 51/53/123 32/24/122 52/54/124
s 32
f 32/24/125 33/26/126 52/54/127
f 52/54/127 33/26/126 53/55/128
s 33
f 33/26/129 34/28/130 53/55/131
f 53/55/131 34/28/130 54/56/132
s 34
f 34/28/133 35/30/134 54/56/135
f 54/56/135 35/30/134 55/57/136
s 35
f 35/30/137 36/32/138 55/57/139
f 55/57/139 36/32/138 56/58/140
s 36
f 36/32/141 37/34/142 56/58/143
f 56/58/143 37/34/142 57/59/144
s 37
f 37/34/145 38/36/146 57/59/147
f 57/59/147 38/36/146 58/60/148
s 38
f 38/36/149 39/38/150 58/60/151
f 58/60/151 39/38/150 59/61/152
s 39
f 39/38/153 40/40/154 59/61/155
f 59/61/155 40/40/154 60/62/156
s 40
f 40/40/157 21/42/158 60/62/159
f 60/62/159 21/42/158 41/63/160
s off
f 2/64/161 1/65/162 61/66/163
f 3/67/164 2/64/165 61/66/166
f 4/68/167 3/67/168 61/66/169
f 5/69/170 4/68/171 61/66/172
f 6/70/173 5/69/174 61/66/175
f 7/71/176 6/70/177 61/66/178
f 8/72/179 7/71/180 61/66/181
f 9/73/182 8/72/183 61/66/184
f 10/74/185 9/73/186 61/66/187
f 11/75/188 10/74/189 61/66/190
f 12/76/191 11/75/192 61/66/193
f 13/77/194 12/76/195 61/66/196
f 14/78/197 13/77/198 61/66/199
f 15/79/200 14/78/201 61/66/202
f 16/80/203 15/79/204 61/66/205
f 17/81/206 16/80/207 61/66/208
f 18/82/209 17/81/210 61/66/211
f 19/83/212 18/82/213 61/66/214
f 20/84/215 19/83/216 61/66/217
f 1/65/218 20/84/219 61/66/220
f 41/85/221 42/86/222 62/87/223
f 42/86/224 43/88/225 62/87/226
f 43/88/227 44/89/228 62/87/229
f 44/89/230 45/90/231 62/87/232
f 45/90/233 46/91/234 62/87/235
f 46/91/236 47/92/237 62/87/238
f 47/92/239 48/93/240 62/87/241
f 48/93/242 49/94/243 62/87/244
f 49/94/245 50/95/246 62/87/247
f 50/95/248 51/96/249 62/87/250
f 51/96/251 52/97/252 62/87/253
f 52/97/254 53/98/255 62/87/256
f 53/98/257 54/99/258 62/87/259
f 54/99/260 55/100/261 62/87/262
f 55/100/263 56/101/264 62/87/265
f 56/101/266 57/102/267 62/87/268
f 57/102/269 58/103/270 62/87/271
f 58/103/272 59/104/273 62/87/274
f 59/104/275 60/105/276 62/87/277
f 60/105/278 41/85/279 62/87/280
