# This file uses centimeters as units for non-parametric coordinates.

mtllib DodgerWeaponOBJ.mtl
g default
v 0.180682 -2.677415 -0.058707
v 0.153697 -2.677415 -0.111667
v 0.111667 -2.677415 -0.153697
v 0.058707 -2.677415 -0.180682
v 0.000000 -2.677415 -0.189980
v -0.058707 -2.677415 -0.180681
v -0.111667 -2.677415 -0.153697
v -0.153697 -2.677415 -0.111667
v -0.180681 -2.677415 -0.058707
v -0.189980 -2.677415 0.000000
v -0.180681 -2.677415 0.058707
v -0.153697 -2.677415 0.111667
v -0.111667 -2.677415 0.153697
v -0.058707 -2.677415 0.180681
v -0.000000 -2.677415 0.189980
v 0.058707 -2.677415 0.180681
v 0.111667 -2.677415 0.153697
v 0.153697 -2.677415 0.111667
v 0.180681 -2.677415 0.058707
v 0.189980 -2.677415 0.000000
v 0.180682 0.950125 -0.058707
v 0.153697 0.950125 -0.111667
v 0.111667 0.950125 -0.153697
v 0.058707 0.950125 -0.180682
v 0.000000 0.950125 -0.189980
v -0.058707 0.950125 -0.180681
v -0.111667 0.950125 -0.153697
v -0.153697 0.950125 -0.111667
v -0.180681 0.950125 -0.058707
v -0.189980 0.950125 0.000000
v -0.180681 0.950125 0.058707
v -0.153697 0.950125 0.111667
v -0.111667 0.950125 0.153697
v -0.058707 0.950125 0.180681
v -0.000000 0.950125 0.189980
v 0.058707 0.950125 0.180681
v 0.111667 0.950125 0.153697
v 0.153697 0.950125 0.111667
v 0.180681 0.950125 0.058707
v 0.189980 0.950125 0.000000
v 0.000000 -2.677415 0.000000
v 0.000000 0.950125 0.000000
v 0.530147 0.974867 -0.172255
v 0.450970 0.974867 -0.327649
v 0.327649 0.974867 -0.450970
v 0.172255 0.974867 -0.530147
v 0.000000 0.974867 -0.557430
v -0.172255 0.974867 -0.530147
v -0.327649 0.974867 -0.450970
v -0.450970 0.974867 -0.327649
v -0.530147 0.974867 -0.172255
v -0.557430 0.974867 0.000000
v -0.530147 0.974867 0.172255
v -0.450970 0.974867 0.327649
v -0.327649 0.974867 0.450970
v -0.172255 0.974867 0.530147
v -0.000000 0.974867 0.557430
v 0.172255 0.974867 0.530147
v 0.327649 0.974867 0.450970
v 0.450970 0.974867 0.327649
v 0.530147 0.974867 0.172255
v 0.557430 0.974867 0.000000
v 0.000000 2.089726 0.000000
vt 0.390491 0.275868
vt 0.374242 0.243977
vt 0.348932 0.218667
vt 0.317041 0.202418
vt 0.281689 0.196819
vt 0.246337 0.202418
vt 0.214445 0.218667
vt 0.189136 0.243977
vt 0.172887 0.275868
vt 0.167287 0.311220
vt 0.172887 0.346572
vt 0.189136 0.378464
vt 0.214445 0.403773
vt 0.246337 0.420022
vt 0.281689 0.425622
vt 0.317041 0.420022
vt 0.348932 0.403773
vt 0.374242 0.378464
vt 0.390491 0.346572
vt 0.396090 0.311220
vt 0.190168 0.425622
vt 0.199320 0.425622
vt 0.208472 0.425622
vt 0.217624 0.425622
vt 0.226776 0.425622
vt 0.235928 0.425622
vt 0.245080 0.425622
vt 0.254232 0.425622
vt 0.263385 0.425622
vt 0.272537 0.425622
vt 0.281689 0.425622
vt 0.290841 0.425622
vt 0.299993 0.425622
vt 0.309145 0.425622
vt 0.318297 0.425622
vt 0.327449 0.425622
vt 0.336601 0.425622
vt 0.345754 0.425622
vt 0.354906 0.425622
vt 0.364058 0.425622
vt 0.373210 0.425622
vt 0.190168 0.700873
vt 0.199320 0.700873
vt 0.208472 0.700873
vt 0.217624 0.700873
vt 0.226776 0.700873
vt 0.235928 0.700873
vt 0.245080 0.700873
vt 0.254232 0.700873
vt 0.263385 0.700873
vt 0.272537 0.700873
vt 0.281689 0.700873
vt 0.290841 0.700873
vt 0.299993 0.700873
vt 0.309145 0.700873
vt 0.318297 0.700873
vt 0.327449 0.700873
vt 0.336601 0.700873
vt 0.345754 0.700873
vt 0.354906 0.700873
vt 0.364058 0.700873
vt 0.373210 0.700873
vt 0.390491 0.779234
vt 0.374242 0.747343
vt 0.348932 0.722034
vt 0.317041 0.705784
vt 0.281689 0.700185
vt 0.246337 0.705784
vt 0.214445 0.722034
vt 0.189136 0.747343
vt 0.172887 0.779234
vt 0.167287 0.814586
vt 0.172887 0.849938
vt 0.189136 0.881830
vt 0.214445 0.907139
vt 0.246337 0.923388
vt 0.281689 0.928988
vt 0.317041 0.923388
vt 0.348932 0.907139
vt 0.374242 0.881830
vt 0.390491 0.849938
vt 0.396090 0.814586
vt 0.281689 0.306644
vt 0.281689 0.810010
vt 0.912810 0.339205
vt 0.920344 0.386772
vt 0.912810 0.434339
vt 0.890946 0.477250
vt 0.856891 0.511304
vt 0.813981 0.533168
vt 0.766414 0.540702
vt 0.718846 0.533168
vt 0.675936 0.511304
vt 0.641881 0.477250
vt 0.620017 0.434339
vt 0.612483 0.386772
vt 0.620017 0.339205
vt 0.641881 0.296294
vt 0.675936 0.262240
vt 0.718846 0.240376
vt 0.766414 0.232842
vt 0.813981 0.240376
vt 0.856892 0.262240
vt 0.890946 0.296294
vt 0.612483 0.540702
vt 0.627876 0.540702
vt 0.766414 0.848562
vt 0.643269 0.540702
vt 0.658662 0.540702
vt 0.674055 0.540702
vt 0.689448 0.540702
vt 0.704841 0.540702
vt 0.720235 0.540702
vt 0.735628 0.540702
vt 0.751021 0.540702
vt 0.766414 0.540702
vt 0.781807 0.540702
vt 0.797200 0.540702
vt 0.812593 0.540702
vt 0.827986 0.540702
vt 0.843379 0.540702
vt 0.858772 0.540702
vt 0.874165 0.540702
vt 0.889558 0.540702
vt 0.904950 0.540702
vt 0.920344 0.540702
vn 0.951057 0.000000 -0.309016
vn 0.809017 0.000000 -0.587785
vn 0.951057 0.000000 -0.309016
vn 0.809017 0.000000 -0.587785
vn 0.587785 0.000000 -0.809017
vn 0.587785 0.000000 -0.809017
vn 0.309017 0.000000 -0.951057
vn 0.309017 0.000000 -0.951057
vn -0.000000 0.000000 -1.000000
vn -0.000000 0.000000 -1.000000
vn -0.309017 0.000000 -0.951056
vn -0.309017 0.000000 -0.951057
vn -0.587785 0.000000 -0.809017
vn -0.587785 0.000000 -0.809017
vn -0.809017 0.000000 -0.587785
vn -0.809017 0.000000 -0.587785
vn -0.951057 0.000000 -0.309017
vn -0.951057 0.000000 -0.309017
vn -1.000000 0.000000 -0.000000
vn -1.000000 0.000000 0.000000
vn -0.951057 0.000000 0.309017
vn -0.951057 0.000000 0.309017
vn -0.809017 0.000000 0.587785
vn -0.809017 0.000000 0.587785
vn -0.587785 0.000000 0.809017
vn -0.587785 0.000000 0.809017
vn -0.309017 0.000000 0.951057
vn -0.309017 0.000000 0.951057
vn 0.000001 0.000000 1.000000
vn -0.000000 0.000000 1.000000
vn 0.309017 0.000000 0.951057
vn 0.309017 0.000000 0.951056
vn 0.587785 0.000000 0.809017
vn 0.587785 0.000000 0.809017
vn 0.809017 0.000000 0.587785
vn 0.809017 0.000000 0.587785
vn 0.951057 0.000000 0.309017
vn 0.951057 0.000000 0.309017
vn 1.000000 0.000000 0.000001
vn 1.000000 0.000000 0.000001
vn 0.000000 -1.000000 -0.000003
vn 0.000000 -1.000000 -0.000000
vn 0.000000 -1.000000 -0.000000
vn 0.000000 -1.000000 0.000001
vn 0.000000 -1.000000 0.000001
vn 0.000000 -1.000000 0.000000
vn 0.000000 -1.000000 0.000000
vn 0.000000 -1.000000 0.000000
vn 0.000000 -1.000000 0.000000
vn 0.000000 -1.000000 0.000005
vn 0.000000 -1.000000 0.000003
vn 0.000000 -1.000000 -0.000003
vn 0.000000 -1.000000 0.000000
vn 0.000000 -1.000000 0.000000
vn 0.000000 -1.000000 -0.000000
vn 0.000000 -1.000000 -0.000000
vn 0.000000 -1.000000 0.000000
vn 0.000000 -1.000000 0.000000
vn 0.000000 -1.000000 0.000000
vn 0.000000 -1.000000 -0.000005
vn 0.000000 -1.000000 -0.000003
vn 0.000000 1.000000 0.000000
vn 0.000000 1.000000 0.000001
vn 0.000000 1.000000 0.000000
vn 0.000000 1.000000 0.000000
vn 0.000000 1.000000 0.000000
vn 0.000000 1.000000 0.000000
vn 0.000000 1.000000 0.000000
vn 0.000000 1.000000 0.000000
vn 0.000000 1.000000 0.000000
vn 0.000000 1.000000 0.000000
vn 0.000000 1.000000 0.000000
vn 0.000000 1.000000 0.000000
vn 0.000000 1.000000 0.000000
vn 0.000000 1.000000 0.000000
vn 0.000000 1.000000 0.000000
vn 0.000000 1.000000 0.000000
vn 0.000000 1.000000 -0.000000
vn 0.000000 1.000000 0.000000
vn 0.000000 1.000000 0.000000
vn 0.000000 1.000000 0.000000
vn 0.000000 1.000000 -0.000001
vn 0.000000 -1.000000 0.000000
vn 0.000000 -1.000000 0.000000
vn 0.000000 -1.000000 -0.000000
vn 0.000000 -1.000000 0.000000
vn 0.000000 -1.000000 -0.000000
vn 0.000000 -1.000000 -0.000000
vn 0.000000 -1.000000 -0.000000
vn 0.000000 -1.000000 0.000000
vn 0.000000 -1.000000 -0.000000
vn 0.000000 -1.000000 -0.000000
vn 0.000000 -1.000000 0.000000
vn 0.000000 -1.000000 -0.000000
vn 0.000000 -1.000000 -0.000000
vn 0.000000 -1.000000 0.000001
vn 0.000000 -1.000000 -0.000000
vn 0.000000 -1.000000 -0.000001
vn 0.000000 -1.000000 0.000001
vn 0.000000 -1.000000 0.000000
vn 0.000000 -1.000000 0.000000
vn 0.000000 -1.000000 0.000000
vn 0.850651 0.447214 -0.276392
vn 0.723607 0.447214 -0.525731
vn 0.000001 1.000000 -0.000001
vn 0.525731 0.447214 -0.723607
vn 0.276393 0.447214 -0.850651
vn 0.000000 0.447214 -0.894427
vn -0.276393 0.447214 -0.850651
vn -0.525731 0.447214 -0.723607
vn -0.723607 0.447214 -0.525731
vn -0.850651 0.447214 -0.276393
vn -0.894427 0.447214 0.000000
vn -0.850651 0.447214 0.276393
vn -0.723607 0.447214 0.525731
vn -0.525731 0.447214 0.723607
vn -0.276393 0.447214 0.850651
vn -0.000000 0.447214 0.894427
vn 0.276393 0.447214 0.850651
vn 0.525731 0.447214 0.723607
vn 0.723607 0.447214 0.525731
vn 0.850651 0.447214 0.276393
vn 0.894427 0.447214 0.000001
s 1
g pCylinder9
usemtl initialShadingGroup
f 1/21/1 2/22/2 21/42/3
f 21/42/3 2/22/2 22/43/4
f 2/22/2 3/23/5 22/43/4
f 22/43/4 3/23/5 23/44/6
f 3/23/5 4/24/7 23/44/6
f 23/44/6 4/24/7 24/45/8
f 4/24/7 5/25/9 24/45/8
f 24/45/8 5/25/9 25/46/10
f 5/25/9 6/26/11 25/46/10
f 25/46/10 6/26/11 26/47/12
f 6/26/11 7/27/13 26/47/12
f 26/47/12 7/27/13 27/48/14
f 7/27/13 8/28/15 27/48/14
f 27/48/14 8/28/15 28/49/16
f 8/28/15 9/29/17 28/49/16
f 28/49/16 9/29/17 29/50/18
f 9/29/17 10/30/19 29/50/18
f 29/50/18 10/30/19 30/51/20
f 10/30/19 11/31/21 30/51/20
f 30/51/20 11/31/21 31/52/22
f 11/31/21 12/32/23 31/52/22
f 31/52/22 12/32/23 32/53/24
f 12/32/23 13/33/25 32/53/24
f 32/53/24 13/33/25 33/54/26
f 13/33/25 14/34/27 33/54/26
f 33/54/26 14/34/27 34/55/28
f 14/34/27 15/35/29 34/55/28
f 34/55/28 15/35/29 35/56/30
f 15/35/29 16/36/31 35/56/30
f 35/56/30 16/36/31 36/57/32
f 16/36/31 17/37/33 36/57/32
f 36/57/32 17/37/33 37/58/34
f 17/37/33 18/38/35 37/58/34
f 37/58/34 18/38/35 38/59/36
f 18/38/35 19/39/37 38/59/36
f 38/59/36 19/39/37 39/60/38
f 19/39/37 20/40/39 39/60/38
f 39/60/38 20/40/39 40/61/40
f 20/40/39 1/41/1 40/61/40
f 40/61/40 1/41/1 21/62/3
s 2
f 2/2/41 1/1/42 41/83/43
f 3/3/44 2/2/41 41/83/43
f 4/4/45 3/3/44 41/83/43
f 5/5/46 4/4/45 41/83/43
f 6/6/47 5/5/46 41/83/43
f 7/7/48 6/6/47 41/83/43
f 8/8/49 7/7/48 41/83/43
f 9/9/50 8/8/49 41/83/43
f 10/10/51 9/9/50 41/83/43
f 11/11/52 10/10/51 41/83/43
f 12/12/53 11/11/52 41/83/43
f 13/13/54 12/12/53 41/83/43
f 14/14/55 13/13/54 41/83/43
f 15/15/56 14/14/55 41/83/43
f 16/16/57 15/15/56 41/83/43
f 17/17/58 16/16/57 41/83/43
f 18/18/59 17/17/58 41/83/43
f 19/19/60 18/18/59 41/83/43
f 20/20/61 19/19/60 41/83/43
f 1/1/42 20/20/61 41/83/43
s 3
f 21/81/62 22/80/63 42/84/64
f 22/80/63 23/79/65 42/84/64
f 23/79/65 24/78/66 42/84/64
f 24/78/66 25/77/67 42/84/64
f 25/77/67 26/76/68 42/84/64
f 26/76/68 27/75/69 42/84/64
f 27/75/69 28/74/70 42/84/64
f 28/74/70 29/73/71 42/84/64
f 29/73/71 30/72/72 42/84/64
f 30/72/72 31/71/73 42/84/64
f 31/71/73 32/70/74 42/84/64
f 32/70/74 33/69/75 42/84/64
f 33/69/75 34/68/76 42/84/64
f 34/68/76 35/67/77 42/84/64
f 35/67/77 36/66/78 42/84/64
f 36/66/78 37/65/79 42/84/64
f 37/65/79 38/64/80 42/84/64
f 38/64/80 39/63/81 42/84/64
f 39/63/81 40/82/82 42/84/64
f 40/82/82 21/81/62 42/84/64
s 4
f 43/85/83 62/86/84 44/104/85
f 62/86/84 61/87/86 44/104/85
f 61/87/86 60/88/87 44/104/85
f 60/88/87 59/89/88 44/104/85
f 59/89/88 58/90/89 44/104/85
f 58/90/89 57/91/90 44/104/85
f 57/91/90 56/92/91 44/104/85
f 56/92/91 55/93/92 44/104/85
f 55/93/92 54/94/93 44/104/85
f 54/94/93 53/95/94 44/104/85
f 53/95/94 52/96/95 44/104/85
f 52/96/95 51/97/96 44/104/85
f 51/97/96 50/98/97 44/104/85
f 50/98/97 49/99/98 44/104/85
f 49/99/98 48/100/99 44/104/85
f 48/100/99 47/101/100 44/104/85
f 47/101/100 46/102/101 44/104/85
f 46/102/101 45/103/102 44/104/85
s 5
f 43/105/103 44/106/104 63/107/105
f 44/106/104 45/108/106 63/107/105
f 45/108/106 46/109/107 63/107/105
f 46/109/107 47/110/108 63/107/105
f 47/110/108 48/111/109 63/107/105
f 48/111/109 49/112/110 63/107/105
f 49/112/110 50/113/111 63/107/105
f 50/113/111 51/114/112 63/107/105
f 51/114/112 52/115/113 63/107/105
f 52/115/113 53/116/114 63/107/105
f 53/116/114 54/117/115 63/107/105
f 54/117/115 55/118/116 63/107/105
f 55/118/116 56/119/117 63/107/105
f 56/119/117 57/120/118 63/107/105
f 57/120/118 58/121/119 63/107/105
f 58/121/119 59/122/120 63/107/105
f 59/122/120 60/123/121 63/107/105
f 60/123/121 61/124/122 63/107/105
f 61/124/122 62/125/123 63/107/105
f 62/125/123 43/126/103 63/107/105
g default
v 0.180682 -2.677415 -0.058707
v 0.153697 -2.677415 -0.111667
v 0.111667 -2.677415 -0.153697
v 0.058707 -2.677415 -0.180682
v 0.000000 -2.677415 -0.189980
v -0.058707 -2.677415 -0.180681
v -0.111667 -2.677415 -0.153697
v -0.153697 -2.677415 -0.111667
v -0.180681 -2.677415 -0.058707
v -0.189980 -2.677415 0.000000
v -0.180681 -2.677415 0.058707
v -0.153697 -2.677415 0.111667
v -0.111667 -2.677415 0.153697
v -0.058707 -2.677415 0.180681
v -0.000000 -2.677415 0.189980
v 0.058707 -2.677415 0.180681
v 0.111667 -2.677415 0.153697
v 0.153697 -2.677415 0.111667
v 0.180681 -2.677415 0.058707
v 0.189980 -2.677415 0.000000
v 0.180682 0.950125 -0.058707
v 0.153697 0.950125 -0.111667
v 0.111667 0.950125 -0.153697
v 0.058707 0.950125 -0.180682
v 0.000000 0.950125 -0.189980
v -0.058707 0.950125 -0.180681
v -0.111667 0.950125 -0.153697
v -0.153697 0.950125 -0.111667
v -0.180681 0.950125 -0.058707
v -0.189980 0.950125 0.000000
v -0.180681 0.950125 0.058707
v -0.153697 0.950125 0.111667
v -0.111667 0.950125 0.153697
v -0.058707 0.950125 0.180681
v -0.000000 0.950125 0.189980
v 0.058707 0.950125 0.180681
v 0.111667 0.950125 0.153697
v 0.153697 0.950125 0.111667
v 0.180681 0.950125 0.058707
v 0.189980 0.950125 0.000000
v 0.000000 -2.677415 0.000000
v 0.000000 0.950125 0.000000
v 0.530147 0.974867 -0.172255
v 0.450970 0.974867 -0.327649
v 0.327649 0.974867 -0.450970
v 0.172255 0.974867 -0.530147
v 0.000000 0.974867 -0.557430
v -0.172255 0.974867 -0.530147
v -0.327649 0.974867 -0.450970
v -0.450970 0.974867 -0.327649
v -0.530147 0.974867 -0.172255
v -0.557430 0.974867 0.000000
v -0.530147 0.974867 0.172255
v -0.450970 0.974867 0.327649
v -0.327649 0.974867 0.450970
v -0.172255 0.974867 0.530147
v -0.000000 0.974867 0.557430
v 0.172255 0.974867 0.530147
v 0.327649 0.974867 0.450970
v 0.450970 0.974867 0.327649
v 0.530147 0.974867 0.172255
v 0.557430 0.974867 0.000000
v 0.000000 2.089726 0.000000
vt 0.390491 0.275868
vt 0.374242 0.243977
vt 0.348932 0.218667
vt 0.317041 0.202418
vt 0.281689 0.196819
vt 0.246337 0.202418
vt 0.214445 0.218667
vt 0.189136 0.243977
vt 0.172887 0.275868
vt 0.167287 0.311220
vt 0.172887 0.346572
vt 0.189136 0.378464
vt 0.214445 0.403773
vt 0.246337 0.420022
vt 0.281689 0.425622
vt 0.317041 0.420022
vt 0.348932 0.403773
vt 0.374242 0.378464
vt 0.390491 0.346572
vt 0.396090 0.311220
vt 0.190168 0.425622
vt 0.199320 0.425622
vt 0.208472 0.425622
vt 0.217624 0.425622
vt 0.226776 0.425622
vt 0.235928 0.425622
vt 0.245080 0.425622
vt 0.254232 0.425622
vt 0.263385 0.425622
vt 0.272537 0.425622
vt 0.281689 0.425622
vt 0.290841 0.425622
vt 0.299993 0.425622
vt 0.309145 0.425622
vt 0.318297 0.425622
vt 0.327449 0.425622
vt 0.336601 0.425622
vt 0.345754 0.425622
vt 0.354906 0.425622
vt 0.364058 0.425622
vt 0.373210 0.425622
vt 0.190168 0.700873
vt 0.199320 0.700873
vt 0.208472 0.700873
vt 0.217624 0.700873
vt 0.226776 0.700873
vt 0.235928 0.700873
vt 0.245080 0.700873
vt 0.254232 0.700873
vt 0.263385 0.700873
vt 0.272537 0.700873
vt 0.281689 0.700873
vt 0.290841 0.700873
vt 0.299993 0.700873
vt 0.309145 0.700873
vt 0.318297 0.700873
vt 0.327449 0.700873
vt 0.336601 0.700873
vt 0.345754 0.700873
vt 0.354906 0.700873
vt 0.364058 0.700873
vt 0.373210 0.700873
vt 0.390491 0.779234
vt 0.374242 0.747343
vt 0.348932 0.722034
vt 0.317041 0.705784
vt 0.281689 0.700185
vt 0.246337 0.705784
vt 0.214445 0.722034
vt 0.189136 0.747343
vt 0.172887 0.779234
vt 0.167287 0.814586
vt 0.172887 0.849938
vt 0.189136 0.881830
vt 0.214445 0.907139
vt 0.246337 0.923388
vt 0.281689 0.928988
vt 0.317041 0.923388
vt 0.348932 0.907139
vt 0.374242 0.881830
vt 0.390491 0.849938
vt 0.396090 0.814586
vt 0.281689 0.306644
vt 0.281689 0.810010
vt 0.912810 0.339205
vt 0.920344 0.386772
vt 0.912810 0.434339
vt 0.890946 0.477250
vt 0.856891 0.511304
vt 0.813981 0.533168
vt 0.766414 0.540702
vt 0.718846 0.533168
vt 0.675936 0.511304
vt 0.641881 0.477250
vt 0.620017 0.434339
vt 0.612483 0.386772
vt 0.620017 0.339205
vt 0.641881 0.296294
vt 0.675936 0.262240
vt 0.718846 0.240376
vt 0.766414 0.232842
vt 0.813981 0.240376
vt 0.856892 0.262240
vt 0.890946 0.296294
vt 0.612483 0.540702
vt 0.627876 0.540702
vt 0.766414 0.848562
vt 0.643269 0.540702
vt 0.658662 0.540702
vt 0.674055 0.540702
vt 0.689448 0.540702
vt 0.704841 0.540702
vt 0.720235 0.540702
vt 0.735628 0.540702
vt 0.751021 0.540702
vt 0.766414 0.540702
vt 0.781807 0.540702
vt 0.797200 0.540702
vt 0.812593 0.540702
vt 0.827986 0.540702
vt 0.843379 0.540702
vt 0.858772 0.540702
vt 0.874165 0.540702
vt 0.889558 0.540702
vt 0.904950 0.540702
vt 0.920344 0.540702
vn 0.951057 0.000000 -0.309016
vn 0.809017 0.000000 -0.587785
vn 0.951057 0.000000 -0.309016
vn 0.809017 0.000000 -0.587785
vn 0.587785 0.000000 -0.809017
vn 0.587785 0.000000 -0.809017
vn 0.309017 0.000000 -0.951057
vn 0.309017 0.000000 -0.951057
vn -0.000000 0.000000 -1.000000
vn -0.000000 0.000000 -1.000000
vn -0.309017 0.000000 -0.951056
vn -0.309017 0.000000 -0.951057
vn -0.587785 0.000000 -0.809017
vn -0.587785 0.000000 -0.809017
vn -0.809017 0.000000 -0.587785
vn -0.809017 0.000000 -0.587785
vn -0.951057 0.000000 -0.309017
vn -0.951057 0.000000 -0.309017
vn -1.000000 0.000000 -0.000000
vn -1.000000 0.000000 0.000000
vn -0.951057 0.000000 0.309017
vn -0.951057 0.000000 0.309017
vn -0.809017 0.000000 0.587785
vn -0.809017 0.000000 0.587785
vn -0.587785 0.000000 0.809017
vn -0.587785 0.000000 0.809017
vn -0.309017 0.000000 0.951057
vn -0.309017 0.000000 0.951057
vn 0.000001 0.000000 1.000000
vn -0.000000 0.000000 1.000000
vn 0.309017 0.000000 0.951057
vn 0.309017 0.000000 0.951056
vn 0.587785 0.000000 0.809017
vn 0.587785 0.000000 0.809017
vn 0.809017 0.000000 0.587785
vn 0.809017 0.000000 0.587785
vn 0.951057 0.000000 0.309017
vn 0.951057 0.000000 0.309017
vn 1.000000 0.000000 0.000001
vn 1.000000 0.000000 0.000001
vn 0.000000 -1.000000 -0.000003
vn 0.000000 -1.000000 -0.000000
vn 0.000000 -1.000000 -0.000000
vn 0.000000 -1.000000 0.000001
vn 0.000000 -1.000000 0.000001
vn 0.000000 -1.000000 0.000000
vn 0.000000 -1.000000 0.000000
vn 0.000000 -1.000000 0.000000
vn 0.000000 -1.000000 0.000000
vn 0.000000 -1.000000 0.000005
vn 0.000000 -1.000000 0.000003
vn 0.000000 -1.000000 -0.000003
vn 0.000000 -1.000000 0.000000
vn 0.000000 -1.000000 0.000000
vn 0.000000 -1.000000 -0.000000
vn 0.000000 -1.000000 -0.000000
vn 0.000000 -1.000000 0.000000
vn 0.000000 -1.000000 0.000000
vn 0.000000 -1.000000 0.000000
vn 0.000000 -1.000000 -0.000005
vn 0.000000 -1.000000 -0.000003
vn 0.000000 1.000000 0.000000
vn 0.000000 1.000000 0.000001
vn 0.000000 1.000000 0.000000
vn 0.000000 1.000000 0.000000
vn 0.000000 1.000000 0.000000
vn 0.000000 1.000000 0.000000
vn 0.000000 1.000000 0.000000
vn 0.000000 1.000000 0.000000
vn 0.000000 1.000000 0.000000
vn 0.000000 1.000000 0.000000
vn 0.000000 1.000000 0.000000
vn 0.000000 1.000000 0.000000
vn 0.000000 1.000000 0.000000
vn 0.000000 1.000000 0.000000
vn 0.000000 1.000000 0.000000
vn 0.000000 1.000000 0.000000
vn 0.000000 1.000000 -0.000000
vn 0.000000 1.000000 0.000000
vn 0.000000 1.000000 0.000000
vn 0.000000 1.000000 0.000000
vn 0.000000 1.000000 -0.000001
vn 0.000000 -1.000000 0.000000
vn 0.000000 -1.000000 0.000000
vn 0.000000 -1.000000 -0.000000
vn 0.000000 -1.000000 0.000000
vn 0.000000 -1.000000 -0.000000
vn 0.000000 -1.000000 -0.000000
vn 0.000000 -1.000000 -0.000000
vn 0.000000 -1.000000 0.000000
vn 0.000000 -1.000000 -0.000000
vn 0.000000 -1.000000 -0.000000
vn 0.000000 -1.000000 0.000000
vn 0.000000 -1.000000 -0.000000
vn 0.000000 -1.000000 -0.000000
vn 0.000000 -1.000000 0.000001
vn 0.000000 -1.000000 -0.000000
vn 0.000000 -1.000000 -0.000001
vn 0.000000 -1.000000 0.000001
vn 0.000000 -1.000000 0.000000
vn 0.000000 -1.000000 0.000000
vn 0.000000 -1.000000 0.000000
vn 0.850651 0.447214 -0.276392
vn 0.723607 0.447214 -0.525731
vn 0.000001 1.000000 -0.000001
vn 0.525731 0.447214 -0.723607
vn 0.276393 0.447214 -0.850651
vn 0.000000 0.447214 -0.894427
vn -0.276393 0.447214 -0.850651
vn -0.525731 0.447214 -0.723607
vn -0.723607 0.447214 -0.525731
vn -0.850651 0.447214 -0.276393
vn -0.894427 0.447214 0.000000
vn -0.850651 0.447214 0.276393
vn -0.723607 0.447214 0.525731
vn -0.525731 0.447214 0.723607
vn -0.276393 0.447214 0.850651
vn -0.000000 0.447214 0.894427
vn 0.276393 0.447214 0.850651
vn 0.525731 0.447214 0.723607
vn 0.723607 0.447214 0.525731
vn 0.850651 0.447214 0.276393
vn 0.894427 0.447214 0.000001
s 1
g pCylinder9
f 64/147/124 65/148/125 84/168/126
f 84/168/126 65/148/125 85/169/127
f 65/148/125 66/149/128 85/169/127
f 85/169/127 66/149/128 86/170/129
f 66/149/128 67/150/130 86/170/129
f 86/170/129 67/150/130 87/171/131
f 67/150/130 68/151/132 87/171/131
f 87/171/131 68/151/132 88/172/133
f 68/151/132 69/152/134 88/172/133
f 88/172/133 69/152/134 89/173/135
f 69/152/134 70/153/136 89/173/135
f 89/173/135 70/153/136 90/174/137
f 70/153/136 71/154/138 90/174/137
f 90/174/137 71/154/138 91/175/139
f 71/154/138 72/155/140 91/175/139
f 91/175/139 72/155/140 92/176/141
f 72/155/140 73/156/142 92/176/141
f 92/176/141 73/156/142 93/177/143
f 73/156/142 74/157/144 93/177/143
f 93/177/143 74/157/144 94/178/145
f 74/157/144 75/158/146 94/178/145
f 94/178/145 75/158/146 95/179/147
f 75/158/146 76/159/148 95/179/147
f 95/179/147 76/159/148 96/180/149
f 76/159/148 77/160/150 96/180/149
f 96/180/149 77/160/150 97/181/151
f 77/160/150 78/161/152 97/181/151
f 97/181/151 78/161/152 98/182/153
f 78/161/152 79/162/154 98/182/153
f 98/182/153 79/162/154 99/183/155
f 79/162/154 80/163/156 99/183/155
f 99/183/155 80/163/156 100/184/157
f 80/163/156 81/164/158 100/184/157
f 100/184/157 81/164/158 101/185/159
f 81/164/158 82/165/160 101/185/159
f 101/185/159 82/165/160 102/186/161
f 82/165/160 83/166/162 102/186/161
f 102/186/161 83/166/162 103/187/163
f 83/166/162 64/167/124 103/187/163
f 103/187/163 64/167/124 84/188/126
s 2
f 65/128/164 64/127/165 104/209/166
f 66/129/167 65/128/164 104/209/166
f 67/130/168 66/129/167 104/209/166
f 68/131/169 67/130/168 104/209/166
f 69/132/170 68/131/169 104/209/166
f 70/133/171 69/132/170 104/209/166
f 71/134/172 70/133/171 104/209/166
f 72/135/173 71/134/172 104/209/166
f 73/136/174 72/135/173 104/209/166
f 74/137/175 73/136/174 104/209/166
f 75/138/176 74/137/175 104/209/166
f 76/139/177 75/138/176 104/209/166
f 77/140/178 76/139/177 104/209/166
f 78/141/179 77/140/178 104/209/166
f 79/142/180 78/141/179 104/209/166
f 80/143/181 79/142/180 104/209/166
f 81/144/182 80/143/181 104/209/166
f 82/145/183 81/144/182 104/209/166
f 83/146/184 82/145/183 104/209/166
f 64/127/165 83/146/184 104/209/166
s 3
f 84/207/185 85/206/186 105/210/187
f 85/206/186 86/205/188 105/210/187
f 86/205/188 87/204/189 105/210/187
f 87/204/189 88/203/190 105/210/187
f 88/203/190 89/202/191 105/210/187
f 89/202/191 90/201/192 105/210/187
f 90/201/192 91/200/193 105/210/187
f 91/200/193 92/199/194 105/210/187
f 92/199/194 93/198/195 105/210/187
f 93/198/195 94/197/196 105/210/187
f 94/197/196 95/196/197 105/210/187
f 95/196/197 96/195/198 105/210/187
f 96/195/198 97/194/199 105/210/187
f 97/194/199 98/193/200 105/210/187
f 98/193/200 99/192/201 105/210/187
f 99/192/201 100/191/202 105/210/187
f 100/191/202 101/190/203 105/210/187
f 101/190/203 102/189/204 105/210/187
f 102/189/204 103/208/205 105/210/187
f 103/208/205 84/207/185 105/210/187
s 4
f 106/211/206 125/212/207 107/230/208
f 125/212/207 124/213/209 107/230/208
f 124/213/209 123/214/210 107/230/208
f 123/214/210 122/215/211 107/230/208
f 122/215/211 121/216/212 107/230/208
f 121/216/212 120/217/213 107/230/208
f 120/217/213 119/218/214 107/230/208
f 119/218/214 118/219/215 107/230/208
f 118/219/215 117/220/216 107/230/208
f 117/220/216 116/221/217 107/230/208
f 116/221/217 115/222/218 107/230/208
f 115/222/218 114/223/219 107/230/208
f 114/223/219 113/224/220 107/230/208
f 113/224/220 112/225/221 107/230/208
f 112/225/221 111/226/222 107/230/208
f 111/226/222 110/227/223 107/230/208
f 110/227/223 109/228/224 107/230/208
f 109/228/224 108/229/225 107/230/208
s 5
f 106/231/226 107/232/227 126/233/228
f 107/232/227 108/234/229 126/233/228
f 108/234/229 109/235/230 126/233/228
f 109/235/230 110/236/231 126/233/228
f 110/236/231 111/237/232 126/233/228
f 111/237/232 112/238/233 126/233/228
f 112/238/233 113/239/234 126/233/228
f 113/239/234 114/240/235 126/233/228
f 114/240/235 115/241/236 126/233/228
f 115/241/236 116/242/237 126/233/228
f 116/242/237 117/243/238 126/233/228
f 117/243/238 118/244/239 126/233/228
f 118/244/239 119/245/240 126/233/228
f 119/245/240 120/246/241 126/233/228
f 120/246/241 121/247/242 126/233/228
f 121/247/242 122/248/243 126/233/228
f 122/248/243 123/249/244 126/233/228
f 123/249/244 124/250/245 126/233/228
f 124/250/245 125/251/246 126/233/228
f 125/251/246 106/252/226 126/233/228
