# This file uses centimeters as units for non-parametric coordinates.

mtllib DogderHandOBJ.mtl
g default
v 0.031720 1.343267 0.802445
v 0.026983 1.338296 0.794587
v 0.019604 1.334351 0.788352
v 0.010307 1.331818 0.784348
v 0.000000 1.330945 0.782969
v -0.010307 1.331818 0.784348
v -0.019604 1.334351 0.788352
v -0.026983 1.338296 0.794587
v -0.031720 1.343267 0.802445
v -0.033353 1.348777 0.811154
v -0.031720 1.354288 0.819864
v -0.026983 1.359259 0.827721
v -0.019604 1.363204 0.833957
v -0.010307 1.365737 0.837960
v 0.000000 1.366609 0.839340
v 0.010307 1.365737 0.837960
v 0.019604 1.363204 0.833957
v 0.026983 1.359259 0.827721
v 0.031720 1.354288 0.819864
v 0.033353 1.348777 0.811154
v 0.087621 2.108849 0.296586
v 0.074535 2.095118 0.274882
v 0.054153 2.084220 0.257658
v 0.028470 2.077224 0.246599
v 0.000000 2.074813 0.242788
v -0.028470 2.077224 0.246599
v -0.054153 2.084220 0.257658
v -0.074535 2.095118 0.274882
v -0.087621 2.108849 0.296586
v -0.092130 2.124071 0.320645
v -0.087621 2.139292 0.344704
v -0.074535 2.153024 0.366408
v -0.054153 2.163921 0.383632
v -0.028470 2.170918 0.394690
v 0.000000 2.173328 0.398501
v 0.028470 2.170918 0.394690
v 0.054153 2.163921 0.383632
v 0.074535 2.153024 0.366408
v 0.087621 2.139292 0.344704
v 0.092130 2.124071 0.320645
v 0.000000 1.348777 0.811154
v 0.000000 2.124071 0.320645
vt 0.134669 0.588555
vt 0.141744 0.588555
vt 0.141744 0.801336
vt 0.134669 0.801336
vt 0.148819 0.588555
vt 0.148819 0.801336
vt 0.155894 0.588555
vt 0.155894 0.801336
vt 0.162969 0.588555
vt 0.162969 0.801336
vt 0.170044 0.588555
vt 0.170044 0.801336
vt 0.177119 0.588555
vt 0.177119 0.801336
vt 0.184194 0.588555
vt 0.184194 0.801336
vt 0.191269 0.588555
vt 0.191269 0.801336
vt 0.198344 0.588555
vt 0.198344 0.801336
vt 0.205419 0.588555
vt 0.205419 0.801336
vt 0.212494 0.588555
vt 0.212494 0.801336
vt 0.219569 0.588555
vt 0.219569 0.801336
vt 0.226643 0.588555
vt 0.226643 0.801336
vt 0.233718 0.588555
vt 0.233718 0.801336
vt 0.240793 0.588555
vt 0.240793 0.801336
vt 0.247868 0.588555
vt 0.247868 0.801336
vt 0.254943 0.588555
vt 0.254943 0.801336
vt 0.262018 0.588555
vt 0.262018 0.801336
vt 0.269093 0.588555
vt 0.269093 0.801336
vt 0.276168 0.588555
vt 0.276168 0.801336
vt 0.276966 0.836215
vt 0.289527 0.860868
vt 0.205419 0.884660
vt 0.257401 0.816650
vt 0.232747 0.804088
vt 0.205419 0.799760
vt 0.178090 0.804088
vt 0.153437 0.816650
vt 0.133871 0.836215
vt 0.121310 0.860868
vt 0.116982 0.888197
vt 0.121310 0.915525
vt 0.133871 0.940179
vt 0.153437 0.959744
vt 0.178090 0.972306
vt 0.205419 0.976634
vt 0.232747 0.972306
vt 0.257401 0.959744
vt 0.276966 0.940179
vt 0.289527 0.915525
vt 0.293856 0.888197
vt 0.289527 0.916570
vt 0.276966 0.941224
vt 0.205419 0.885704
vt 0.257401 0.960789
vt 0.232747 0.973350
vt 0.205419 0.977679
vt 0.178090 0.973350
vt 0.153437 0.960789
vt 0.133871 0.941224
vt 0.121310 0.916570
vt 0.116982 0.889242
vt 0.121310 0.861913
vt 0.133871 0.837259
vt 0.153437 0.817694
vt 0.178090 0.805133
vt 0.205419 0.800804
vt 0.232747 0.805133
vt 0.257401 0.817694
vt 0.276966 0.837259
vt 0.289527 0.861913
vt 0.293856 0.889242
vn 0.949111 -0.218910 -0.226422
vn 0.807362 -0.367650 -0.461519
vn 0.807362 -0.367650 -0.461519
vn 0.949111 -0.218910 -0.226422
vn 0.807362 -0.367650 -0.461519
vn 0.586583 -0.485691 -0.648094
vn 0.586583 -0.485691 -0.648093
vn 0.807362 -0.367650 -0.461519
vn 0.586583 -0.485691 -0.648094
vn 0.308384 -0.561478 -0.767881
vn 0.308384 -0.561478 -0.767881
vn 0.586583 -0.485691 -0.648093
vn 0.308384 -0.561478 -0.767881
vn 0.000000 -0.587592 -0.809157
vn 0.000000 -0.587592 -0.809157
vn 0.308384 -0.561478 -0.767881
vn 0.000000 -0.587592 -0.809157
vn -0.308385 -0.561478 -0.767881
vn -0.308385 -0.561478 -0.767881
vn 0.000000 -0.587592 -0.809157
vn -0.308385 -0.561478 -0.767881
vn -0.586583 -0.485691 -0.648093
vn -0.586583 -0.485691 -0.648093
vn -0.308385 -0.561478 -0.767881
vn -0.586583 -0.485691 -0.648093
vn -0.807362 -0.367650 -0.461520
vn -0.807362 -0.367650 -0.461520
vn -0.586583 -0.485691 -0.648093
vn -0.807362 -0.367650 -0.461520
vn -0.949111 -0.218910 -0.226423
vn -0.949111 -0.218910 -0.226423
vn -0.807362 -0.367650 -0.461520
vn -0.949111 -0.218910 -0.226423
vn -0.997954 -0.054031 0.034184
vn -0.997954 -0.054030 0.034184
vn -0.949111 -0.218910 -0.226423
vn -0.997954 -0.054031 0.034184
vn -0.949111 0.110849 0.294790
vn -0.949111 0.110849 0.294791
vn -0.997954 -0.054030 0.034184
vn -0.949111 0.110849 0.294790
vn -0.807362 0.259589 0.529887
vn -0.807362 0.259589 0.529887
vn -0.949111 0.110849 0.294791
vn -0.807362 0.259589 0.529887
vn -0.586583 0.377630 0.716461
vn -0.586583 0.377630 0.716461
vn -0.807362 0.259589 0.529887
vn -0.586583 0.377630 0.716461
vn -0.308385 0.453417 0.836249
vn -0.308385 0.453417 0.836249
vn -0.586583 0.377630 0.716461
vn -0.308385 0.453417 0.836249
vn 0.000000 0.479531 0.877525
vn 0.000000 0.479531 0.877525
vn -0.308385 0.453417 0.836249
vn 0.000000 0.479531 0.877525
vn 0.308385 0.453417 0.836249
vn 0.308385 0.453417 0.836249
vn 0.000000 0.479531 0.877525
vn 0.308385 0.453417 0.836249
vn 0.586583 0.377630 0.716461
vn 0.586583 0.377630 0.716461
vn 0.308385 0.453417 0.836249
vn 0.586583 0.377630 0.716461
vn 0.807362 0.259589 0.529887
vn 0.807362 0.259589 0.529887
vn 0.586583 0.377630 0.716461
vn 0.807362 0.259589 0.529887
vn 0.949111 0.110849 0.294791
vn 0.949111 0.110849 0.294791
vn 0.807362 0.259589 0.529887
vn 0.949111 0.110849 0.294791
vn 0.997954 -0.054030 0.034185
vn 0.997954 -0.054030 0.034185
vn 0.949111 0.110849 0.294791
vn 0.997954 -0.054030 0.034185
vn 0.949111 -0.218910 -0.226422
vn 0.949111 -0.218910 -0.226422
vn 0.997954 -0.054030 0.034185
vn 0.000000 -0.845071 0.534654
vn 0.000000 -0.845070 0.534656
vn 0.000000 -0.845070 0.534656
vn 0.000000 -0.845071 0.534654
vn 0.000000 -0.845071 0.534654
vn 0.000000 -0.845070 0.534656
vn 0.000000 -0.845070 0.534656
vn 0.000000 -0.845071 0.534654
vn 0.000000 -0.845070 0.534656
vn 0.000000 -0.845070 0.534656
vn 0.000000 -0.845070 0.534656
vn 0.000000 -0.845070 0.534656
vn 0.000000 -0.845070 0.534656
vn 0.000000 -0.845070 0.534656
vn 0.000000 -0.845070 0.534656
vn 0.000000 -0.845068 0.534659
vn 0.000000 -0.845070 0.534656
vn 0.000000 -0.845070 0.534656
vn 0.000000 -0.845068 0.534659
vn 0.000000 -0.845068 0.534659
vn 0.000000 -0.845070 0.534656
vn 0.000000 -0.845070 0.534656
vn 0.000000 -0.845068 0.534659
vn 0.000000 -0.845070 0.534656
vn 0.000000 -0.845070 0.534656
vn 0.000000 -0.845070 0.534656
vn 0.000000 -0.845070 0.534656
vn 0.000000 -0.845070 0.534656
vn 0.000000 -0.845070 0.534656
vn 0.000000 -0.845070 0.534656
vn 0.000000 -0.845071 0.534654
vn 0.000000 -0.845070 0.534656
vn 0.000000 -0.845070 0.534656
vn 0.000000 -0.845071 0.534654
vn 0.000000 -0.845071 0.534654
vn 0.000000 -0.845070 0.534656
vn 0.000000 -0.845070 0.534656
vn 0.000000 -0.845071 0.534654
vn 0.000000 -0.845070 0.534656
vn 0.000000 -0.845070 0.534655
vn 0.000000 -0.845070 0.534656
vn 0.000000 -0.845070 0.534656
vn 0.000000 -0.845071 0.534655
vn 0.000000 -0.845070 0.534655
vn 0.000000 -0.845070 0.534656
vn 0.000000 -0.845068 0.534659
vn 0.000000 -0.845071 0.534655
vn 0.000000 -0.845070 0.534656
vn 0.000000 -0.845068 0.534659
vn 0.000000 -0.845068 0.534659
vn 0.000000 -0.845070 0.534656
vn 0.000000 -0.845070 0.534656
vn 0.000000 -0.845068 0.534659
vn 0.000000 -0.845070 0.534656
vn 0.000000 -0.845070 0.534656
vn 0.000000 -0.845070 0.534656
vn 0.000000 -0.845070 0.534656
vn 0.000000 -0.845070 0.534656
vn 0.000000 -0.845070 0.534656
vn 0.000000 -0.845070 0.534656
vn 0.000000 0.845070 -0.534656
vn 0.000000 0.845070 -0.534656
vn 0.000000 0.845070 -0.534656
vn 0.000000 0.845070 -0.534656
vn 0.000000 0.845070 -0.534656
vn 0.000000 0.845070 -0.534656
vn 0.000000 0.845070 -0.534656
vn 0.000000 0.845070 -0.534656
vn 0.000000 0.845070 -0.534656
vn 0.000000 0.845070 -0.534656
vn 0.000000 0.845070 -0.534656
vn 0.000000 0.845070 -0.534656
vn 0.000000 0.845070 -0.534656
vn 0.000000 0.845070 -0.534656
vn 0.000000 0.845070 -0.534656
vn 0.000000 0.845070 -0.534656
vn 0.000000 0.845070 -0.534656
vn 0.000000 0.845070 -0.534656
vn 0.000000 0.845070 -0.534656
vn 0.000000 0.845070 -0.534656
vn 0.000000 0.845070 -0.534656
vn 0.000000 0.845070 -0.534656
vn 0.000000 0.845070 -0.534656
vn 0.000000 0.845070 -0.534656
vn 0.000000 0.845070 -0.534656
vn 0.000000 0.845070 -0.534656
vn 0.000000 0.845070 -0.534656
vn 0.000000 0.845070 -0.534656
vn 0.000000 0.845070 -0.534656
vn 0.000000 0.845070 -0.534656
vn 0.000000 0.845070 -0.534656
vn 0.000000 0.845070 -0.534656
vn 0.000000 0.845070 -0.534656
vn 0.000000 0.845070 -0.534656
vn 0.000000 0.845070 -0.534656
vn 0.000000 0.845070 -0.534656
vn 0.000000 0.845070 -0.534656
vn 0.000000 0.845070 -0.534656
vn 0.000000 0.845070 -0.534656
vn 0.000000 0.845070 -0.534656
vn 0.000000 0.845070 -0.534656
vn 0.000000 0.845070 -0.534656
vn 0.000000 0.845070 -0.534656
vn 0.000000 0.845070 -0.534656
vn 0.000000 0.845070 -0.534656
vn 0.000000 0.845070 -0.534656
vn 0.000000 0.845070 -0.534656
vn 0.000000 0.845070 -0.534656
vn 0.000000 0.845070 -0.534656
vn 0.000000 0.845070 -0.534656
vn 0.000000 0.845070 -0.534656
vn 0.000000 0.845070 -0.534656
vn 0.000000 0.845070 -0.534656
vn 0.000000 0.845070 -0.534656
vn 0.000000 0.845070 -0.534656
vn 0.000000 0.845070 -0.534656
vn 0.000000 0.845070 -0.534656
vn 0.000000 0.845070 -0.534656
vn 0.000000 0.845070 -0.534656
vn 0.000000 0.845070 -0.534656
s off
g pCylinder1
usemtl lambert2SG
f 1/1/1 2/2/2 22/3/3 21/4/4
f 2/2/5 3/5/6 23/6/7 22/3/8
f 3/5/9 4/7/10 24/8/11 23/6/12
f 4/7/13 5/9/14 25/10/15 24/8/16
f 5/9/17 6/11/18 26/12/19 25/10/20
f 6/11/21 7/13/22 27/14/23 26/12/24
f 7/13/25 8/15/26 28/16/27 27/14/28
f 8/15/29 9/17/30 29/18/31 28/16/32
f 9/17/33 10/19/34 30/20/35 29/18/36
f 10/19/37 11/21/38 31/22/39 30/20/40
f 11/21/41 12/23/42 32/24/43 31/22/44
f 12/23/45 13/25/46 33/26/47 32/24/48
f 13/25/49 14/27/50 34/28/51 33/26/52
f 14/27/53 15/29/54 35/30/55 34/28/56
f 15/29/57 16/31/58 36/32/59 35/30/60
f 16/31/61 17/33/62 37/34/63 36/32/64
f 17/33/65 18/35/66 38/36/67 37/34/68
f 18/35/69 19/37/70 39/38/71 38/36/72
f 19/37/73 20/39/74 40/40/75 39/38/76
f 20/39/77 1/41/78 21/42/79 40/40/80
f 2/43/81 1/44/82 41/45/83
f 3/46/84 2/43/85 41/45/86
f 4/47/87 3/46/88 41/45/89
f 5/48/90 4/47/91 41/45/92
f 6/49/93 5/48/94 41/45/95
f 7/50/96 6/49/97 41/45/98
f 8/51/99 7/50/100 41/45/101
f 9/52/102 8/51/103 41/45/104
f 10/53/105 9/52/106 41/45/107
f 11/54/108 10/53/109 41/45/110
f 12/55/111 11/54/112 41/45/113
f 13/56/114 12/55/115 41/45/116
f 14/57/117 13/56/118 41/45/119
f 15/58/120 14/57/121 41/45/122
f 16/59/123 15/58/124 41/45/125
f 17/60/126 16/59/127 41/45/128
f 18/61/129 17/60/130 41/45/131
f 19/62/132 18/61/133 41/45/134
f 20/63/135 19/62/136 41/45/137
f 1/44/138 20/63/139 41/45/140
f 21/64/141 22/65/142 42/66/143
f 22/65/144 23/67/145 42/66/146
f 23/67/147 24/68/148 42/66/149
f 24/68/150 25/69/151 42/66/152
f 25/69/153 26/70/154 42/66/155
f 26/70/156 27/71/157 42/66/158
f 27/71/159 28/72/160 42/66/161
f 28/72/162 29/73/163 42/66/164
f 29/73/165 30/74/166 42/66/167
f 30/74/168 31/75/169 42/66/170
f 31/75/171 32/76/172 42/66/173
f 32/76/174 33/77/175 42/66/176
f 33/77/177 34/78/178 42/66/179
f 34/78/180 35/79/181 42/66/182
f 35/79/183 36/80/184 42/66/185
f 36/80/186 37/81/187 42/66/188
f 37/81/189 38/82/190 42/66/191
f 38/82/192 39/83/193 42/66/194
f 39/83/195 40/84/196 42/66/197
f 40/84/198 21/64/199 42/66/200
