# This file uses centimeters as units for non-parametric coordinates.

mtllib bigwall.mtl
g default
v -500.000000 -50.000000 0.500000
v 500.000000 -50.000000 0.500000
v -500.000000 50.000000 0.500000
v 500.000000 50.000000 0.500000
v -500.000000 50.000000 -0.500000
v 500.000000 50.000000 -0.500000
v -500.000000 -50.000000 -0.500000
v 500.000000 -50.000000 -0.500000
vt 0.227119 0.001992
vt 0.228115 0.001992
vt 0.228115 0.101594
vt 0.227119 0.101594
vt 0.234544 0.001992
vt 0.235540 0.001992
vt 0.235540 0.101594
vt 0.234544 0.101594
vt 0.106463 0.998008
vt 0.106463 0.001992
vt 0.107458 0.001992
vt 0.107458 0.998008
vt 0.219694 0.998008
vt 0.219694 0.001992
vt 0.220690 0.001992
vt 0.220690 0.998008
vt 0.000470 0.998008
vt 0.000470 0.001992
vt 0.100072 0.001992
vt 0.100072 0.998008
vt 0.113888 0.998008
vt 0.113888 0.001992
vt 0.213489 0.001992
vt 0.213489 0.998008
vn 0.000000 0.000000 1.000000
vn 0.000000 0.000000 1.000000
vn 0.000000 0.000000 1.000000
vn 0.000000 0.000000 1.000000
vn 0.000000 1.000000 0.000000
vn 0.000000 1.000000 0.000000
vn 0.000000 1.000000 0.000000
vn 0.000000 1.000000 0.000000
vn 0.000000 0.000000 -1.000000
vn 0.000000 0.000000 -1.000000
vn 0.000000 0.000000 -1.000000
vn 0.000000 0.000000 -1.000000
vn 0.000000 -1.000000 0.000000
vn 0.000000 -1.000000 0.000000
vn 0.000000 -1.000000 0.000000
vn 0.000000 -1.000000 0.000000
vn 1.000000 0.000000 0.000000
vn 1.000000 0.000000 0.000000
vn 1.000000 0.000000 0.000000
vn 1.000000 0.000000 0.000000
vn -1.000000 0.000000 0.000000
vn -1.000000 0.000000 0.000000
vn -1.000000 0.000000 0.000000
vn -1.000000 0.000000 0.000000
s off
g pCube1
usemtl initialShadingGroup
f 1/17/1 2/18/2 4/19/3 3/20/4
f 3/9/5 4/10/6 6/11/7 5/12/8
f 5/21/9 6/22/10 8/23/11 7/24/12
f 7/13/13 8/14/14 2/15/15 1/16/16
f 2/1/17 8/2/18 6/3/19 4/4/20
f 7/5/21 1/6/22 3/7/23 5/8/24
