# This file uses centimeters as units for non-parametric coordinates.

mtllib cubebombs.mtl
g default
v 0.547455 -0.500000 0.500000
v 1.547455 -0.500000 0.500000
v 0.547455 0.500000 0.500000
v 1.547455 0.500000 0.500000
v 0.547455 0.500000 -0.500000
v 1.547455 0.500000 -0.500000
v 0.547455 -0.500000 -0.500000
v 1.547455 -0.500000 -0.500000
v -0.997636 0.518059 0.500000
v 0.002364 0.518059 0.500000
v -0.997636 1.518059 0.500000
v 0.002364 1.518059 0.500000
v -0.997636 1.518059 -0.500000
v 0.002364 1.518059 -0.500000
v -0.997636 0.518059 -0.500000
v 0.002364 0.518059 -0.500000
v -1.562578 -0.500000 1.578125
v -0.562578 -0.500000 1.578125
v -1.562578 0.500000 1.578125
v -0.562578 0.500000 1.578125
v -1.562578 0.500000 0.578125
v -0.562578 0.500000 0.578125
v -1.562578 -0.500000 0.578125
v -0.562578 -0.500000 0.578125
v -0.500000 -0.500000 0.500000
v 0.500000 -0.500000 0.500000
v -0.500000 0.500000 0.500000
v 0.500000 0.500000 0.500000
v -0.500000 0.500000 -0.500000
v 0.500000 0.500000 -0.500000
v -0.500000 -0.500000 -0.500000
v 0.500000 -0.500000 -0.500000
v -1.555758 -0.500000 0.500000
v -0.555758 -0.500000 0.500000
v -1.555758 0.500000 0.500000
v -0.555758 0.500000 0.500000
v -1.555758 0.500000 -0.500000
v -0.555758 0.500000 -0.500000
v -1.555758 -0.500000 -0.500000
v -0.555758 -0.500000 -0.500000
v -0.500000 -0.500000 1.687312
v 0.500000 -0.500000 1.687312
v -0.500000 0.500000 1.687312
v 0.500000 0.500000 1.687312
v -0.500000 0.500000 0.687312
v 0.500000 0.500000 0.687312
v -0.500000 -0.500000 0.687312
v 0.500000 -0.500000 0.687312
v 0.257854 0.518059 0.500000
v 1.257854 0.518059 0.500000
v 0.257854 1.518059 0.500000
v 1.257854 1.518059 0.500000
v 0.257854 1.518059 -0.500000
v 1.257854 1.518059 -0.500000
v 0.257854 0.518059 -0.500000
v 1.257854 0.518059 -0.500000
vt 0.016823 0.015764
vt 0.513645 0.015764
vt 0.513645 0.512585
vt 0.016823 0.512585
vt 0.017817 0.015764
vt 0.514639 0.015764
vt 0.514639 0.512585
vt 0.017817 0.512585
vt 0.517113 0.520462
vt 0.983992 0.520462
vt 0.983992 0.987341
vt 0.517113 0.987341
vt 0.517915 0.518890
vt 0.984795 0.518890
vt 0.984795 0.985770
vt 0.517915 0.985770
vt 0.016823 0.016426
vt 0.513645 0.016426
vt 0.513645 0.513247
vt 0.016823 0.513247
vt 0.518271 0.512868
vt 0.021457 0.510276
vt 0.024049 0.013461
vt 0.520863 0.016053
vt 0.016823 0.016426
vt 0.513645 0.016426
vt 0.016823 0.513247
vt 0.513645 0.513247
vt 0.517113 0.520462
vt 0.983992 0.520462
vt 0.517113 0.987341
vt 0.983992 0.987341
vt 0.518271 0.512868
vt 0.021457 0.510276
vt 0.520863 0.016053
vt 0.024049 0.013461
vt 0.517915 0.518890
vt 0.984795 0.518890
vt 0.517915 0.985770
vt 0.984795 0.985770
vt 0.016823 0.015764
vt 0.513645 0.015764
vt 0.016823 0.512585
vt 0.513645 0.512585
vt 0.017817 0.015764
vt 0.514639 0.015764
vt 0.017817 0.512585
vt 0.514639 0.512585
vt 0.016823 0.016426
vt 0.513645 0.016426
vt 0.016823 0.513247
vt 0.513645 0.513247
vt 0.517113 0.520462
vt 0.983992 0.520462
vt 0.517113 0.987341
vt 0.983992 0.987341
vt 0.518271 0.512868
vt 0.021457 0.510276
vt 0.520863 0.016053
vt 0.024049 0.013461
vt 0.517915 0.518890
vt 0.984795 0.518890
vt 0.517915 0.985770
vt 0.984795 0.985770
vt 0.016823 0.015764
vt 0.513645 0.015764
vt 0.016823 0.512585
vt 0.513645 0.512585
vt 0.017817 0.015764
vt 0.514639 0.015764
vt 0.017817 0.512585
vt 0.514639 0.512585
vt 0.016823 0.016426
vt 0.513645 0.016426
vt 0.016823 0.513247
vt 0.513645 0.513247
vt 0.517113 0.520462
vt 0.983992 0.520462
vt 0.517113 0.987341
vt 0.983992 0.987341
vt 0.518271 0.512868
vt 0.021457 0.510276
vt 0.520863 0.016053
vt 0.024049 0.013461
vt 0.517915 0.518890
vt 0.984795 0.518890
vt 0.517915 0.985770
vt 0.984795 0.985770
vt 0.016823 0.015764
vt 0.513645 0.015764
vt 0.016823 0.512585
vt 0.513645 0.512585
vt 0.017817 0.015764
vt 0.514639 0.015764
vt 0.017817 0.512585
vt 0.514639 0.512585
vt 0.016823 0.016426
vt 0.513645 0.016426
vt 0.016823 0.513247
vt 0.513645 0.513247
vt 0.517113 0.520462
vt 0.983992 0.520462
vt 0.517113 0.987341
vt 0.983992 0.987341
vt 0.518271 0.512868
vt 0.021457 0.510276
vt 0.520863 0.016053
vt 0.024049 0.013461
vt 0.517915 0.518890
vt 0.984795 0.518890
vt 0.517915 0.985770
vt 0.984795 0.985770
vt 0.016823 0.015764
vt 0.513645 0.015764
vt 0.016823 0.512585
vt 0.513645 0.512585
vt 0.017817 0.015764
vt 0.514639 0.015764
vt 0.017817 0.512585
vt 0.514639 0.512585
vt 0.016823 0.016426
vt 0.513645 0.016426
vt 0.016823 0.513247
vt 0.513645 0.513247
vt 0.517113 0.520462
vt 0.983992 0.520462
vt 0.517113 0.987341
vt 0.983992 0.987341
vt 0.518271 0.512868
vt 0.021457 0.510276
vt 0.520863 0.016053
vt 0.024049 0.013461
vt 0.517915 0.518890
vt 0.984795 0.518890
vt 0.517915 0.985770
vt 0.984795 0.985770
vt 0.016823 0.015764
vt 0.513645 0.015764
vt 0.016823 0.512585
vt 0.513645 0.512585
vt 0.017817 0.015764
vt 0.514639 0.015764
vt 0.017817 0.512585
vt 0.514639 0.512585
vt 0.016823 0.016426
vt 0.513645 0.016426
vt 0.016823 0.513247
vt 0.513645 0.513247
vt 0.517113 0.520462
vt 0.983992 0.520462
vt 0.517113 0.987341
vt 0.983992 0.987341
vt 0.518271 0.512868
vt 0.021457 0.510276
vt 0.520863 0.016053
vt 0.024049 0.013461
vt 0.517915 0.518890
vt 0.984795 0.518890
vt 0.517915 0.985770
vt 0.984795 0.985770
vt 0.016823 0.015764
vt 0.513645 0.015764
vt 0.016823 0.512585
vt 0.513645 0.512585
vt 0.017817 0.015764
vt 0.514639 0.015764
vt 0.017817 0.512585
vt 0.514639 0.512585
vn 0.000000 0.000000 1.000000
vn 0.000000 0.000000 1.000000
vn 0.000000 0.000000 1.000000
vn 0.000000 0.000000 1.000000
vn 0.000000 1.000000 0.000000
vn 0.000000 1.000000 0.000000
vn 0.000000 1.000000 0.000000
vn 0.000000 1.000000 0.000000
vn 0.000000 0.000000 -1.000000
vn 0.000000 0.000000 -1.000000
vn 0.000000 0.000000 -1.000000
vn 0.000000 0.000000 -1.000000
vn 0.000000 -1.000000 0.000000
vn 0.000000 -1.000000 0.000000
vn 0.000000 -1.000000 0.000000
vn 0.000000 -1.000000 0.000000
vn 1.000000 0.000000 0.000000
vn 1.000000 0.000000 0.000000
vn 1.000000 0.000000 0.000000
vn 1.000000 0.000000 0.000000
vn -1.000000 0.000000 0.000000
vn -1.000000 0.000000 0.000000
vn -1.000000 0.000000 0.000000
vn -1.000000 0.000000 0.000000
vn 0.000000 0.000000 1.000000
vn 0.000000 0.000000 1.000000
vn 0.000000 0.000000 1.000000
vn 0.000000 0.000000 1.000000
vn 0.000000 1.000000 0.000000
vn 0.000000 1.000000 0.000000
vn 0.000000 1.000000 0.000000
vn 0.000000 1.000000 0.000000
vn 0.000000 0.000000 -1.000000
vn 0.000000 0.000000 -1.000000
vn 0.000000 0.000000 -1.000000
vn 0.000000 0.000000 -1.000000
vn 0.000000 -1.000000 0.000000
vn 0.000000 -1.000000 0.000000
vn 0.000000 -1.000000 0.000000
vn 0.000000 -1.000000 0.000000
vn 1.000000 0.000000 0.000000
vn 1.000000 0.000000 0.000000
vn 1.000000 0.000000 0.000000
vn 1.000000 0.000000 0.000000
vn -1.000000 0.000000 0.000000
vn -1.000000 0.000000 0.000000
vn -1.000000 0.000000 0.000000
vn -1.000000 0.000000 0.000000
vn 0.000000 0.000000 1.000000
vn 0.000000 0.000000 1.000000
vn 0.000000 0.000000 1.000000
vn 0.000000 0.000000 1.000000
vn 0.000000 1.000000 0.000000
vn 0.000000 1.000000 0.000000
vn 0.000000 1.000000 0.000000
vn 0.000000 1.000000 0.000000
vn 0.000000 0.000000 -1.000000
vn 0.000000 0.000000 -1.000000
vn 0.000000 0.000000 -1.000000
vn 0.000000 0.000000 -1.000000
vn 0.000000 -1.000000 0.000000
vn 0.000000 -1.000000 0.000000
vn 0.000000 -1.000000 0.000000
vn 0.000000 -1.000000 0.000000
vn 1.000000 0.000000 0.000000
vn 1.000000 0.000000 0.000000
vn 1.000000 0.000000 0.000000
vn 1.000000 0.000000 0.000000
vn -1.000000 0.000000 0.000000
vn -1.000000 0.000000 0.000000
vn -1.000000 0.000000 0.000000
vn -1.000000 0.000000 0.000000
vn 0.000000 0.000000 1.000000
vn 0.000000 0.000000 1.000000
vn 0.000000 0.000000 1.000000
vn 0.000000 0.000000 1.000000
vn 0.000000 1.000000 0.000000
vn 0.000000 1.000000 0.000000
vn 0.000000 1.000000 0.000000
vn 0.000000 1.000000 0.000000
vn 0.000000 0.000000 -1.000000
vn 0.000000 0.000000 -1.000000
vn 0.000000 0.000000 -1.000000
vn 0.000000 0.000000 -1.000000
vn 0.000000 -1.000000 0.000000
vn 0.000000 -1.000000 0.000000
vn 0.000000 -1.000000 0.000000
vn 0.000000 -1.000000 0.000000
vn 1.000000 0.000000 0.000000
vn 1.000000 0.000000 0.000000
vn 1.000000 0.000000 0.000000
vn 1.000000 0.000000 0.000000
vn -1.000000 0.000000 0.000000
vn -1.000000 0.000000 0.000000
vn -1.000000 0.000000 0.000000
vn -1.000000 0.000000 0.000000
vn 0.000000 0.000000 1.000000
vn 0.000000 0.000000 1.000000
vn 0.000000 0.000000 1.000000
vn 0.000000 0.000000 1.000000
vn 0.000000 1.000000 0.000000
vn 0.000000 1.000000 0.000000
vn 0.000000 1.000000 0.000000
vn 0.000000 1.000000 0.000000
vn 0.000000 0.000000 -1.000000
vn 0.000000 0.000000 -1.000000
vn 0.000000 0.000000 -1.000000
vn 0.000000 0.000000 -1.000000
vn 0.000000 -1.000000 0.000000
vn 0.000000 -1.000000 0.000000
vn 0.000000 -1.000000 0.000000
vn 0.000000 -1.000000 0.000000
vn 1.000000 0.000000 0.000000
vn 1.000000 0.000000 0.000000
vn 1.000000 0.000000 0.000000
vn 1.000000 0.000000 0.000000
vn -1.000000 0.000000 0.000000
vn -1.000000 0.000000 0.000000
vn -1.000000 0.000000 0.000000
vn -1.000000 0.000000 0.000000
vn 0.000000 0.000000 1.000000
vn 0.000000 0.000000 1.000000
vn 0.000000 0.000000 1.000000
vn 0.000000 0.000000 1.000000
vn 0.000000 1.000000 0.000000
vn 0.000000 1.000000 0.000000
vn 0.000000 1.000000 0.000000
vn 0.000000 1.000000 0.000000
vn 0.000000 0.000000 -1.000000
vn 0.000000 0.000000 -1.000000
vn 0.000000 0.000000 -1.000000
vn 0.000000 0.000000 -1.000000
vn 0.000000 -1.000000 0.000000
vn 0.000000 -1.000000 0.000000
vn 0.000000 -1.000000 0.000000
vn 0.000000 -1.000000 0.000000
vn 1.000000 0.000000 0.000000
vn 1.000000 0.000000 0.000000
vn 1.000000 0.000000 0.000000
vn 1.000000 0.000000 0.000000
vn -1.000000 0.000000 0.000000
vn -1.000000 0.000000 0.000000
vn -1.000000 0.000000 0.000000
vn -1.000000 0.000000 0.000000
vn 0.000000 0.000000 1.000000
vn 0.000000 0.000000 1.000000
vn 0.000000 0.000000 1.000000
vn 0.000000 0.000000 1.000000
vn 0.000000 1.000000 0.000000
vn 0.000000 1.000000 0.000000
vn 0.000000 1.000000 0.000000
vn 0.000000 1.000000 0.000000
vn 0.000000 0.000000 -1.000000
vn 0.000000 0.000000 -1.000000
vn 0.000000 0.000000 -1.000000
vn 0.000000 0.000000 -1.000000
vn 0.000000 -1.000000 0.000000
vn 0.000000 -1.000000 0.000000
vn 0.000000 -1.000000 0.000000
vn 0.000000 -1.000000 0.000000
vn 1.000000 0.000000 0.000000
vn 1.000000 0.000000 0.000000
vn 1.000000 0.000000 0.000000
vn 1.000000 0.000000 0.000000
vn -1.000000 0.000000 0.000000
vn -1.000000 0.000000 0.000000
vn -1.000000 0.000000 0.000000
vn -1.000000 0.000000 0.000000
s 1
g group_pasted__pCube1
usemtl pasted__lambert2SG
f 1/17/1 2/18/2 3/20/3
f 3/20/3 2/18/2 4/19/4
s 2
f 3/9/5 4/10/6 5/12/7
f 5/12/7 4/10/6 6/11/8
s 3
f 5/21/9 6/22/10 7/24/11
f 7/24/11 6/22/10 8/23/12
s 4
f 7/13/13 8/14/14 1/16/15
f 1/16/15 8/14/14 2/15/16
s 5
f 2/1/17 8/2/18 4/4/19
f 4/4/19 8/2/18 6/3/20
s 6
f 7/5/21 1/6/22 5/8/23
f 5/8/23 1/6/22 3/7/24
s 7
usemtl pasted__pasted__lambert2SG3
f 9/25/25 10/26/26 11/27/27
f 11/27/27 10/26/26 12/28/28
s 8
f 11/29/29 12/30/30 13/31/31
f 13/31/31 12/30/30 14/32/32
s 9
f 13/33/33 14/34/34 15/35/35
f 15/35/35 14/34/34 16/36/36
s 10
f 15/37/37 16/38/38 9/39/39
f 9/39/39 16/38/38 10/40/40
s 11
f 10/41/41 16/42/42 12/43/43
f 12/43/43 16/42/42 14/44/44
s 12
f 15/45/45 9/46/46 13/47/47
f 13/47/47 9/46/46 11/48/48
s 13
usemtl pasted__lambert2SG4
f 17/49/49 18/50/50 19/51/51
f 19/51/51 18/50/50 20/52/52
s 14
f 19/53/53 20/54/54 21/55/55
f 21/55/55 20/54/54 22/56/56
s 15
f 21/57/57 22/58/58 23/59/59
f 23/59/59 22/58/58 24/60/60
s 16
f 23/61/61 24/62/62 17/63/63
f 17/63/63 24/62/62 18/64/64
s 17
f 18/65/65 24/66/66 20/67/67
f 20/67/67 24/66/66 22/68/68
s 18
f 23/69/69 17/70/70 21/71/71
f 21/71/71 17/70/70 19/72/72
s 19
usemtl lambert2SG
f 25/73/73 26/74/74 27/75/75
f 27/75/75 26/74/74 28/76/76
s 20
f 27/77/77 28/78/78 29/79/79
f 29/79/79 28/78/78 30/80/80
s 21
f 29/81/81 30/82/82 31/83/83
f 31/83/83 30/82/82 32/84/84
s 22
f 31/85/85 32/86/86 25/87/87
f 25/87/87 32/86/86 26/88/88
s 23
f 26/89/89 32/90/90 28/91/91
f 28/91/91 32/90/90 30/92/92
s 24
f 31/93/93 25/94/94 29/95/95
f 29/95/95 25/94/94 27/96/96
s 25
usemtl pasted__lambert2SG1
f 33/97/97 34/98/98 35/99/99
f 35/99/99 34/98/98 36/100/100
s 26
f 35/101/101 36/102/102 37/103/103
f 37/103/103 36/102/102 38/104/104
s 27
f 37/105/105 38/106/106 39/107/107
f 39/107/107 38/106/106 40/108/108
s 28
f 39/109/109 40/110/110 33/111/111
f 33/111/111 40/110/110 34/112/112
s 29
f 34/113/113 40/114/114 36/115/115
f 36/115/115 40/114/114 38/116/116
s 30
f 39/117/117 33/118/118 37/119/119
f 37/119/119 33/118/118 35/120/120
s 31
usemtl pasted__lambert2SG2
f 41/121/121 42/122/122 43/123/123
f 43/123/123 42/122/122 44/124/124
s 32
f 43/125/125 44/126/126 45/127/127
f 45/127/127 44/126/126 46/128/128
s 33
f 45/129/129 46/130/130 47/131/131
f 47/131/131 46/130/130 48/132/132
s 34
f 47/133/133 48/134/134 41/135/135
f 41/135/135 48/134/134 42/136/136
s 35
f 42/137/137 48/138/138 44/139/139
f 44/139/139 48/138/138 46/140/140
s 36
f 47/141/141 41/142/142 45/143/143
f 45/143/143 41/142/142 43/144/144
s 37
usemtl pasted__lambert2SG3
f 49/145/145 50/146/146 51/147/147
f 51/147/147 50/146/146 52/148/148
s 38
f 51/149/149 52/150/150 53/151/151
f 53/151/151 52/150/150 54/152/152
s 39
f 53/153/153 54/154/154 55/155/155
f 55/155/155 54/154/154 56/156/156
s 40
f 55/157/157 56/158/158 49/159/159
f 49/159/159 56/158/158 50/160/160
s 41
f 50/161/161 56/162/162 52/163/163
f 52/163/163 56/162/162 54/164/164
s 42
f 55/165/165 49/166/166 53/167/167
f 53/167/167 49/166/166 51/168/168
