# This file uses centimeters as units for non-parametric coordinates.

mtllib watchtower.mtl
g default
v -0.750000 -3.000000 0.750000
v 0.750000 -3.000000 0.750000
v -0.750000 -2.400000 0.750000
v 0.750000 -2.400000 0.750000
v -0.750000 -1.800000 0.750000
v 0.750000 -1.800000 0.750000
v -0.750000 -1.200000 0.750000
v 0.750000 -1.200000 0.750000
v -0.750000 -0.600000 0.750000
v 0.750000 -0.600000 0.750000
v -0.750000 0.000000 0.750000
v 0.750000 0.000000 0.750000
v -0.750000 0.600000 0.750000
v 0.750000 0.600000 0.750000
v -0.750000 1.200000 0.750000
v 0.750000 1.200000 0.750000
v -0.750000 1.800000 0.750000
v 0.750000 1.800000 0.750000
v -0.750000 2.400000 0.750000
v 0.750000 2.400000 0.750000
v -0.750000 3.000000 0.750000
v 0.750000 3.000000 0.750000
v -0.750000 3.000000 -0.750000
v 0.750000 3.000000 -0.750000
v -0.750000 2.400000 -0.750000
v 0.750000 2.400000 -0.750000
v -0.750000 1.800000 -0.750000
v 0.750000 1.800000 -0.750000
v -0.750000 1.200000 -0.750000
v 0.750000 1.200000 -0.750000
v -0.750000 0.600000 -0.750000
v 0.750000 0.600000 -0.750000
v -0.750000 0.000000 -0.750000
v 0.750000 0.000000 -0.750000
v -0.750000 -0.600000 -0.750000
v 0.750000 -0.600000 -0.750000
v -0.750000 -1.200000 -0.750000
v 0.750000 -1.200000 -0.750000
v -0.750000 -1.800000 -0.750000
v 0.750000 -1.800000 -0.750000
v -0.750000 -2.400000 -0.750000
v 0.750000 -2.400000 -0.750000
v -0.750000 -3.000000 -0.750000
v 0.750000 -3.000000 -0.750000
v -0.750000 2.631577 0.750000
v -0.750000 2.631577 -0.750000
v 0.750000 2.631577 -0.750000
v 0.750000 2.631577 0.750000
v -2.070021 2.400000 2.070021
v 2.070021 2.400000 2.070021
v 2.070021 2.631577 2.070021
v -2.070021 2.631577 2.070021
v -2.070021 2.631577 -2.070021
v 2.070021 2.631577 -2.070021
v 2.070021 2.400000 -2.070021
v -2.070021 2.400000 -2.070021
v -1.877901 2.631577 -1.877901
v -1.877901 2.631577 1.877901
v 1.877901 2.631577 1.877901
v 1.877901 2.631577 -1.877901
v -1.877901 3.331728 -1.877901
v -1.877901 3.331728 1.877901
v -2.070021 3.331728 -2.070021
v -2.070021 3.331728 2.070021
v 1.877901 3.331728 1.877901
v 2.070021 3.331728 2.070021
v 1.877901 3.331728 -1.877901
v 2.070021 3.331728 -2.070021
v -0.750000 4.001038 0.750000
v 0.750000 4.001038 0.750000
v 0.750000 4.001038 -0.750000
v -0.750000 4.001038 -0.750000
vt 0.246892 0.001992
vt 0.361694 0.001992
vt 0.361694 0.047913
vt 0.246892 0.047913
vt 0.361694 0.093834
vt 0.246892 0.093834
vt 0.361694 0.139754
vt 0.246892 0.139754
vt 0.361694 0.185675
vt 0.246892 0.185675
vt 0.361694 0.231596
vt 0.246892 0.231596
vt 0.361694 0.277516
vt 0.246892 0.277516
vt 0.361694 0.323437
vt 0.246892 0.323437
vt 0.361694 0.369358
vt 0.246892 0.369358
vt 0.361694 0.415279
vt 0.246892 0.415279
vt 0.648429 0.318848
vt 0.648429 0.001992
vt 0.666152 0.001992
vt 0.666152 0.318848
vt 0.719738 0.001992
vt 0.719738 0.318848
vt 0.369265 0.001992
vt 0.484067 0.001992
vt 0.484067 0.047913
vt 0.369265 0.047913
vt 0.484067 0.093834
vt 0.369265 0.093834
vt 0.484067 0.139754
vt 0.369265 0.139754
vt 0.484067 0.185675
vt 0.369265 0.185675
vt 0.484067 0.231596
vt 0.369265 0.231596
vt 0.484067 0.277516
vt 0.369265 0.277516
vt 0.484067 0.323437
vt 0.369265 0.323437
vt 0.484067 0.369358
vt 0.369265 0.369358
vt 0.484067 0.415279
vt 0.369265 0.415279
vt 0.726824 0.318848
vt 0.726824 0.001992
vt 0.744548 0.001992
vt 0.744548 0.318848
vt 0.798133 0.001992
vt 0.798133 0.318848
vt 0.491638 0.854768
vt 0.491638 0.739967
vt 0.519835 0.739967
vt 0.519835 0.854768
vt 0.596449 0.739967
vt 0.596449 0.854768
vt 0.713439 0.758338
vt 0.713439 0.643536
vt 0.741637 0.643536
vt 0.741637 0.758338
vt 0.818251 0.643536
vt 0.818251 0.758338
vt 0.001954 0.998008
vt 0.001954 0.710559
vt 0.055540 0.710559
vt 0.055540 0.998008
vt 0.124519 0.998008
vt 0.124519 0.710559
vt 0.178104 0.710559
vt 0.178104 0.998008
vt 0.246892 0.739967
vt 0.361694 0.739967
vt 0.361694 0.854768
vt 0.246892 0.854768
vt 0.369265 0.739967
vt 0.484067 0.739967
vt 0.484067 0.854768
vt 0.369265 0.854768
vt 0.763298 0.538593
vt 0.878100 0.538593
vt 0.979127 0.639620
vt 0.662271 0.639620
vt 0.878100 0.423791
vt 0.979127 0.322764
vt 0.763298 0.423791
vt 0.662271 0.322764
vt 0.247052 0.505518
vt 0.132251 0.505518
vt 0.045927 0.419195
vt 0.333376 0.419195
vt 0.132251 0.620320
vt 0.045927 0.706643
vt 0.247052 0.620320
vt 0.333376 0.706643
vt 0.354099 0.433898
vt 0.354099 0.721347
vt 0.339395 0.736051
vt 0.339395 0.419195
vt 0.641548 0.721347
vt 0.656251 0.736051
vt 0.641548 0.433898
vt 0.656251 0.419195
vt 0.001954 0.001992
vt 0.116756 0.001992
vt 0.116756 0.047913
vt 0.001954 0.047913
vt 0.116756 0.093834
vt 0.001954 0.093834
vt 0.116756 0.139754
vt 0.001954 0.139754
vt 0.116756 0.185675
vt 0.001954 0.185675
vt 0.116756 0.231596
vt 0.001954 0.231596
vt 0.116756 0.277516
vt 0.001954 0.277516
vt 0.116756 0.323437
vt 0.001954 0.323437
vt 0.116756 0.369358
vt 0.001954 0.369358
vt 0.116756 0.415279
vt 0.001954 0.415279
vt 0.491638 0.318848
vt 0.491638 0.001992
vt 0.509362 0.001992
vt 0.509362 0.318848
vt 0.562948 0.001992
vt 0.562948 0.318848
vt 0.623619 0.318848
vt 0.623619 0.001992
vt 0.641343 0.001992
vt 0.641343 0.318848
vt 0.570033 0.318848
vt 0.570033 0.001992
vt 0.124519 0.001992
vt 0.239321 0.001992
vt 0.239321 0.047913
vt 0.124519 0.047913
vt 0.239321 0.093834
vt 0.124519 0.093834
vt 0.239321 0.139754
vt 0.124519 0.139754
vt 0.239321 0.185675
vt 0.124519 0.185675
vt 0.239321 0.231596
vt 0.124519 0.231596
vt 0.239321 0.277517
vt 0.124519 0.277517
vt 0.239321 0.323437
vt 0.124519 0.323437
vt 0.239321 0.369358
vt 0.124519 0.369358
vt 0.239321 0.415279
vt 0.124519 0.415279
vt 0.679153 0.854768
vt 0.679153 0.739967
vt 0.707350 0.739967
vt 0.707350 0.854768
vt 0.602539 0.854768
vt 0.602539 0.739967
vt 0.824340 0.758338
vt 0.824340 0.643536
vt 0.852537 0.643536
vt 0.852537 0.758338
vt 0.929151 0.643536
vt 0.929151 0.758338
vt 0.116918 0.710559
vt 0.116918 0.998008
vt 0.063332 0.998008
vt 0.063332 0.710559
vt 0.185705 0.998008
vt 0.185705 0.710559
vt 0.239291 0.710559
vt 0.239291 0.998008
vn 0.000000 0.000000 1.000000
vn 0.000000 0.000000 1.000000
vn 0.000000 0.000000 1.000000
vn 0.000000 0.000000 1.000000
vn 0.000000 0.000000 1.000000
vn 0.000000 0.000000 1.000000
vn 0.000000 0.000000 1.000000
vn 0.000000 0.000000 1.000000
vn 0.000000 0.000000 1.000000
vn 0.000000 0.000000 1.000000
vn 0.000000 0.000000 1.000000
vn 0.000000 0.000000 1.000000
vn 0.000000 0.000000 1.000000
vn 0.000000 0.000000 1.000000
vn 0.000000 0.000000 1.000000
vn 0.000000 0.000000 1.000000
vn 0.000000 0.000000 1.000000
vn 0.000000 0.000000 1.000000
vn 0.000000 0.000000 1.000000
vn 0.000000 0.000000 1.000000
vn 0.000000 0.000000 1.000000
vn 0.000000 0.000000 1.000000
vn 0.000000 0.000000 1.000000
vn 0.000000 0.000000 1.000000
vn 0.000000 1.000000 0.000000
vn 0.000000 1.000000 0.000000
vn 0.000000 1.000000 0.000000
vn 0.000000 1.000000 0.000000
vn 0.000000 0.000000 -1.000000
vn 0.000000 0.000000 -1.000000
vn 0.000000 0.000000 -1.000000
vn 0.000000 0.000000 -1.000000
vn 0.000000 0.000000 -1.000000
vn 0.000000 0.000000 -1.000000
vn 0.000000 0.000000 -1.000000
vn 0.000000 0.000000 -1.000000
vn 0.000000 0.000000 -1.000000
vn 0.000000 0.000000 -1.000000
vn 0.000000 0.000000 -1.000000
vn 0.000000 0.000000 -1.000000
vn 0.000000 0.000000 -1.000000
vn 0.000000 0.000000 -1.000000
vn 0.000000 0.000000 -1.000000
vn 0.000000 0.000000 -1.000000
vn 0.000000 0.000000 -1.000000
vn 0.000000 0.000000 -1.000000
vn 0.000000 0.000000 -1.000000
vn 0.000000 0.000000 -1.000000
vn 0.000000 0.000000 -1.000000
vn 0.000000 0.000000 -1.000000
vn 0.000000 0.000000 -1.000000
vn 0.000000 0.000000 -1.000000
vn 0.000000 -1.000000 0.000000
vn 0.000000 -1.000000 0.000000
vn 0.000000 -1.000000 0.000000
vn 0.000000 -1.000000 0.000000
vn 1.000000 0.000000 0.000000
vn 1.000000 0.000000 0.000000
vn 1.000000 0.000000 0.000000
vn 1.000000 0.000000 0.000000
vn 1.000000 0.000000 0.000000
vn 1.000000 0.000000 0.000000
vn 1.000000 0.000000 0.000000
vn 1.000000 0.000000 0.000000
vn 1.000000 0.000000 0.000000
vn 1.000000 0.000000 0.000000
vn 1.000000 0.000000 0.000000
vn 1.000000 0.000000 0.000000
vn 1.000000 0.000000 0.000000
vn 1.000000 0.000000 0.000000
vn 1.000000 0.000000 0.000000
vn 1.000000 0.000000 0.000000
vn 1.000000 0.000000 0.000000
vn 1.000000 0.000000 0.000000
vn 1.000000 0.000000 0.000000
vn 1.000000 0.000000 0.000000
vn 1.000000 0.000000 0.000000
vn 1.000000 0.000000 0.000000
vn 1.000000 0.000000 0.000000
vn 1.000000 0.000000 0.000000
vn -1.000000 0.000000 0.000000
vn -1.000000 0.000000 0.000000
vn -1.000000 0.000000 0.000000
vn -1.000000 0.000000 0.000000
vn -1.000000 0.000000 0.000000
vn -1.000000 0.000000 0.000000
vn -1.000000 0.000000 0.000000
vn -1.000000 0.000000 0.000000
vn -1.000000 0.000000 0.000000
vn -1.000000 0.000000 0.000000
vn -1.000000 0.000000 0.000000
vn -1.000000 0.000000 0.000000
vn -1.000000 0.000000 0.000000
vn -1.000000 0.000000 0.000000
vn -1.000000 0.000000 0.000000
vn -1.000000 0.000000 0.000000
vn -1.000000 0.000000 0.000000
vn -1.000000 0.000000 0.000000
vn -1.000000 0.000000 0.000000
vn -1.000000 0.000000 0.000000
vn -1.000000 0.000000 0.000000
vn -1.000000 0.000000 0.000000
vn -1.000000 0.000000 0.000000
vn -1.000000 0.000000 0.000000
vn -1.000000 0.000000 0.000000
vn -1.000000 0.000000 0.000000
vn -1.000000 0.000000 0.000000
vn -1.000000 0.000000 0.000000
vn 0.000000 0.000000 -1.000000
vn 0.000000 0.000000 -1.000000
vn 0.000000 0.000000 -1.000000
vn 0.000000 0.000000 -1.000000
vn 1.000000 0.000000 0.000000
vn 1.000000 0.000000 0.000000
vn 1.000000 0.000000 0.000000
vn 1.000000 0.000000 0.000000
vn 0.000000 0.000000 1.000000
vn 0.000000 0.000000 1.000000
vn 0.000000 0.000000 1.000000
vn 0.000000 0.000000 1.000000
vn 0.000000 -1.000000 0.000000
vn 0.000000 -1.000000 0.000000
vn 0.000000 -1.000000 0.000000
vn 0.000000 -1.000000 0.000000
vn 0.000000 1.000000 -0.000000
vn 0.000000 1.000000 -0.000000
vn 0.000000 1.000000 -0.000000
vn 0.000000 1.000000 -0.000000
vn 0.000000 1.000000 0.000000
vn 0.000000 1.000000 0.000000
vn 0.000000 1.000000 0.000000
vn 0.000000 1.000000 0.000000
vn 0.000000 -1.000000 0.000000
vn 0.000000 -1.000000 0.000000
vn 0.000000 -1.000000 0.000000
vn 0.000000 -1.000000 0.000000
vn 0.000000 1.000000 0.000001
vn 0.000000 1.000000 -0.000001
vn 0.000000 1.000000 -0.000001
vn 0.000000 1.000000 0.000001
vn 0.000000 1.000000 0.000001
vn 0.000000 1.000000 0.000001
vn 0.000000 1.000000 -0.000001
vn 0.000000 1.000000 -0.000001
vn 1.000000 0.000000 0.000000
vn 1.000000 0.000000 0.000000
vn 1.000000 0.000000 0.000000
vn 1.000000 0.000000 0.000000
vn -1.000000 0.000000 0.000000
vn -1.000000 0.000000 0.000000
vn 0.000000 0.000000 -1.000000
vn 0.000000 0.000000 -1.000000
vn 0.000000 0.000000 -1.000000
vn 0.000000 0.000000 -1.000000
vn 0.000000 0.000000 1.000000
vn 0.000000 0.000000 1.000000
vn -1.000000 0.000000 0.000000
vn -1.000000 0.000000 0.000000
vn -1.000000 0.000000 0.000000
vn -1.000000 0.000000 0.000000
vn 1.000000 0.000000 0.000000
vn 1.000000 0.000000 0.000000
vn 0.000000 0.000000 1.000000
vn 0.000000 0.000000 1.000000
vn 0.000000 0.000000 1.000000
vn 0.000000 0.000000 1.000000
vn 0.000000 0.000000 -1.000000
vn 0.000000 0.000000 -1.000000
vn 0.000000 0.000000 1.000000
vn 0.000000 0.000000 1.000000
vn 1.000000 0.000000 0.000000
vn 1.000000 0.000000 0.000000
vn 0.000000 0.000000 -1.000000
vn 0.000000 0.000000 -1.000000
vn -1.000000 0.000000 0.000000
vn -1.000000 0.000000 0.000000
s 1
g pCube1
usemtl lambert2SG
f 1/105/1 2/106/2 4/107/3 3/108/4
f 3/108/4 4/107/3 6/109/5 5/110/6
f 5/110/6 6/109/5 8/111/7 7/112/8
f 7/112/8 8/111/7 10/113/9 9/114/10
f 9/114/10 10/113/9 12/115/11 11/116/12
f 11/116/12 12/115/11 14/117/13 13/118/14
f 13/118/14 14/117/13 16/119/15 15/120/16
f 15/120/16 16/119/15 18/121/17 17/122/18
f 17/122/18 18/121/17 20/123/19 19/124/20
s 2
f 49/125/21 50/126/22 51/127/23 52/128/24
s off
f 69/73/25 70/74/26 71/75/27 72/76/28
s 3
f 53/131/29 54/132/30 55/133/31 56/134/32
s 4
f 25/137/33 26/138/34 28/139/35 27/140/36
f 27/140/36 28/139/35 30/141/37 29/142/38
f 29/142/38 30/141/37 32/143/39 31/144/40
f 31/144/40 32/143/39 34/145/41 33/146/42
f 33/146/42 34/145/41 36/147/43 35/148/44
f 35/148/44 36/147/43 38/149/45 37/150/46
f 37/150/46 38/149/45 40/151/47 39/152/48
f 39/152/48 40/151/47 42/153/49 41/154/50
f 41/154/50 42/153/49 44/155/51 43/156/52
s off
f 43/77/53 44/78/54 2/79/55 1/80/56
s 5
f 2/1/57 44/2/58 42/3/59 4/4/60
f 4/4/60 42/3/59 40/5/61 6/6/62
f 6/6/62 40/5/61 38/7/63 8/8/64
f 8/8/64 38/7/63 36/9/65 10/10/66
f 10/10/66 36/9/65 34/11/67 12/12/68
f 12/12/68 34/11/67 32/13/69 14/14/70
f 14/14/70 32/13/69 30/15/71 16/16/72
f 16/16/72 30/15/71 28/17/73 18/18/74
f 18/18/74 28/17/73 26/19/75 20/20/76
s 6
f 50/21/77 55/22/78 54/23/79 51/24/80
s 7
f 43/27/81 1/28/82 3/29/83 41/30/84
f 41/30/84 3/29/83 5/31/85 39/32/86
f 39/32/86 5/31/85 7/33/87 37/34/88
f 37/34/88 7/33/87 9/35/89 35/36/90
f 35/36/90 9/35/89 11/37/91 33/38/92
f 33/38/92 11/37/91 13/39/93 31/40/94
f 31/40/94 13/39/93 15/41/95 29/42/96
f 29/42/96 15/41/95 17/43/97 27/44/98
f 27/44/98 17/43/97 19/45/99 25/46/100
s 8
f 56/47/101 49/48/102 52/49/103 53/50/104
s 9
f 46/53/105 45/54/106 21/55/107 23/56/108
s 10
f 23/157/109 24/158/110 47/159/111 46/160/112
s 11
f 48/59/113 47/60/114 24/61/115 22/62/116
s 12
f 45/163/117 48/164/118 22/165/119 21/166/120
s 13
f 19/81/121 20/82/122 50/83/123 49/84/124
s 14
f 48/89/125 45/90/126 58/91/127 59/92/128
f 46/93/129 47/95/130 60/96/131 57/94/132
s 13
f 26/85/133 25/87/134 56/88/135 55/86/136
f 20/82/122 26/85/133 55/86/136 50/83/123
s 14
f 47/95/130 48/89/125 59/92/128 60/96/131
s 13
f 25/87/134 19/81/121 49/84/124 56/88/135
s 14
f 45/90/126 46/93/129 57/94/132 58/91/127
s 15
f 62/97/137 61/98/138 63/99/139 64/100/140
f 65/103/141 62/97/137 64/100/140 66/104/142
f 67/101/143 65/103/141 66/104/142 68/102/144
f 61/98/138 67/101/143 68/102/144 63/99/139
s off
f 58/65/145 57/66/146 61/67/147 62/68/148
s 8
f 53/50/104 52/49/103 64/51/149 63/52/150
s off
f 59/169/151 58/170/152 62/171/153 65/172/154
s 2
f 52/128/24 51/127/23 66/129/155 64/130/156
s off
f 60/69/157 59/70/158 65/71/159 67/72/160
s 6
f 51/24/80 54/23/79 68/25/161 66/26/162
s off
f 57/173/163 60/174/164 67/175/165 61/176/166
s 3
f 54/132/30 53/131/29 63/135/167 68/136/168
s 12
f 21/166/120 22/165/119 70/167/169 69/168/170
s 11
f 22/62/116 24/61/115 71/63/171 70/64/172
s 10
f 24/158/110 23/157/109 72/161/173 71/162/174
s 9
f 23/56/108 21/55/107 69/57/175 72/58/176
